<svg xmlns="http://www.w3.org/2000/svg" xmlns:xlink="http://www.w3.org/1999/xlink" width="500" zoomAndPan="magnify" viewBox="0 0 375 374.999991" height="500" preserveAspectRatio="xMidYMid meet" version="1.0"><path fill="#59371c" d="M 175.640625 169.5625 C 175.554688 169.5625 175.554688 169.695312 175.640625 169.695312 C 175.726562 169.695312 175.726562 169.5625 175.640625 169.5625 " fill-opacity="1" fill-rule="nonzero"/><path fill="#59371c" d="M 350.433594 326.515625 L 348.472656 324.015625 C 348.191406 323.679688 347.804688 323.644531 347.457031 323.765625 C 341.429688 320.027344 331.566406 321.492188 325.28125 321.386719 C 305.648438 321.0625 294.351562 319.441406 241.230469 316.167969 C 244.472656 311.578125 247.742188 306.277344 250.875 300.167969 C 255.210938 302.214844 261.582031 301.40625 267.050781 300.269531 C 284.753906 304.855469 291.5 312.144531 298.308594 319.871094 L 298.929688 319.359375 C 292.039062 310.382812 286.503906 304.472656 272.359375 299.066406 C 282.710938 296.632812 293.027344 292.480469 299.917969 284.429688 C 330.539062 291.136719 374.992188 307.316406 350.433594 326.515625 Z M 341.789062 336.429688 C 338.828125 337.402344 335.640625 337.097656 332.570312 336.644531 C 332.378906 336.527344 332.195312 336.402344 332.019531 336.257812 C 331.820312 336.335938 331.621094 336.417969 331.40625 336.484375 C 244.832031 325.078125 302.132812 330.566406 242.230469 325.578125 C 166.246094 319.25 186.546875 341.730469 141.96875 341.371094 C 129.902344 341.261719 117.964844 339.289062 106.546875 335.398438 C 100.902344 333.464844 95.402344 331.171875 90.132812 328.367188 C 88.210938 327.355469 84.253906 325.578125 83.515625 323.472656 C 81.863281 318.78125 87.949219 316.839844 91.09375 316.945312 C 91.453125 316.945312 91.695312 316.660156 91.75 316.359375 C 102.527344 314.769531 113.644531 315.648438 124.339844 317.4375 C 130.988281 318.546875 137.5625 320.039062 144.035156 321.871094 C 150.1875 323.605469 156.726562 327.101562 163.058594 327.59375 C 164.289062 327.691406 165.074219 325.875 164.105469 325.058594 C 158.152344 320.140625 137.324219 315.5 132.414062 314.527344 C 126 305.734375 119.390625 294.042969 113.933594 278.691406 C 113.5625 277.652344 113.203125 276.59375 112.839844 275.511719 C 104.875 251.703125 99.699219 219.546875 101.804688 176.507812 C 124.3125 190.132812 214.601562 194.222656 257.226562 180.148438 C 260.992188 178.867188 264.097656 177.492188 266.417969 175.890625 C 265.277344 176.679688 266.886719 190.234375 266.90625 192.167969 C 266.953125 197.933594 266.867188 203.699219 266.625 209.453125 C 266.144531 221.054688 265.046875 232.632812 263.125 244.089844 C 259.578125 265.210938 253.289062 286.609375 242.113281 304.996094 C 241.292969 306.347656 236.371094 315.890625 234.878906 315.808594 C 206.832031 314.34375 183.304688 313.757812 168.234375 326.941406 C 167.648438 327.464844 168.414062 328.277344 169.039062 327.96875 C 190.597656 317.734375 214.226562 318.277344 237.652344 320.09375 L 238.085938 320.425781 C 238.148438 320.335938 238.230469 320.238281 238.292969 320.144531 C 246.890625 320.8125 255.464844 321.644531 263.898438 322.152344 C 280.960938 323.191406 298.03125 324.21875 315.089844 325.164062 C 339.15625 326.535156 342.425781 323.335938 347.886719 330.167969 C 347.335938 333.027344 344.800781 335.433594 341.789062 336.429688 Z M 184.984375 334.808594 C 197.011719 329.3125 211 328.972656 224.15625 329.585938 C 221.753906 330.351562 208.710938 335.910156 184.984375 334.808594 Z M 82.210938 315.285156 C 83.671875 312.585938 86.34375 310.011719 89.730469 308.039062 C 93.097656 306.039062 97.433594 304.371094 102.996094 302.921875 C 107.53125 301.804688 112.324219 300.792969 117.242188 299.914062 L 117.269531 299.910156 C 119.792969 304.851562 122.40625 309.292969 125.023438 313.234375 C 124.292969 313.125 123.570312 313.019531 122.832031 312.925781 C 111.125 311.40625 98.179688 310.992188 87.054688 315.609375 C 84.539062 315.96875 82.109375 317.046875 80.753906 319 C 81.027344 317.855469 81.46875 316.605469 82.210938 315.285156 Z M 258.191406 351.714844 C 153.925781 362.523438 25.175781 345.363281 23.332031 315.664062 C 23.316406 315.636719 23.316406 315.410156 23.308594 315.566406 C 23.074219 294.703125 87.203125 282.511719 108.558594 279.421875 C 110.785156 285.828125 113.214844 291.601562 115.75 296.855469 C 111.101562 297.882812 106.566406 299.042969 102.257812 300.300781 C 96.566406 302.058594 92.117188 304.03125 88.664062 306.335938 C 85.113281 308.652344 82.378906 311.613281 80.96875 314.652344 C 79.632812 317.398438 79.402344 319.816406 79.351562 321.621094 C 79.324219 322.324219 79.375 322.878906 79.402344 323.28125 L 79.460938 324.097656 L 79.871094 324.078125 C 81.308594 329.585938 89.984375 333.296875 94.097656 335.378906 C 113.800781 345.355469 137.886719 349.230469 159.726562 345.546875 C 165.875 344.523438 171.222656 341.847656 176.53125 339.074219 C 202.496094 342.238281 232.316406 335.347656 233.066406 330.121094 C 244.160156 330.808594 255.378906 331.402344 266.410156 332.535156 C 281.988281 334.113281 286.210938 335.933594 320.601562 340.140625 C 301.363281 345.972656 278.097656 349.617188 258.191406 351.714844 Z M 179.167969 367.121094 C 172.351562 367.015625 165.386719 366.785156 158.316406 366.390625 C 139.738281 365.363281 97.304688 361.582031 81.765625 351.40625 C 142.71875 364.710938 233.292969 365.800781 298.960938 351.46875 C 276.480469 366.019531 206.214844 367.46875 179.167969 367.121094 Z M 102.273438 167.734375 C 108.738281 162.886719 120.191406 160.460938 128.53125 158.953125 C 146.777344 155.566406 172.214844 154.597656 173.550781 154.707031 C 173.089844 158.789062 173.609375 162.84375 175.851562 166.808594 C 153.371094 167.4375 136.324219 170.578125 117.445312 175.660156 C 136.890625 171.765625 153.605469 169.292969 177.132812 168.824219 C 177.164062 168.859375 177.1875 168.902344 177.21875 168.945312 C 178.3125 170.4375 181.042969 170.683594 181.796875 168.773438 C 205.316406 168.785156 221.550781 170.816406 241.945312 174.511719 C 222.0625 169.554688 205.054688 166.84375 182.320312 166.730469 C 183.265625 162.46875 184.6875 158.425781 186.433594 154.535156 C 219.898438 154.539062 257.410156 160.410156 264.980469 167.707031 C 266.246094 169.015625 265.976562 169.335938 266.003906 169.386719 C 265.996094 169.46875 265.976562 169.5625 265.96875 169.667969 C 265.949219 169.792969 265.925781 170.003906 265.886719 169.9375 L 265.886719 169.921875 C 265.832031 169.910156 265.535156 170.480469 264.902344 171.03125 C 257.15625 177.871094 226.363281 180.476562 216.617188 181.1875 C 204.046875 181.964844 192.574219 182.480469 175.453125 182.296875 C 162.414062 182.160156 151.90625 181.535156 141.328125 180.441406 C 152.027344 177.152344 162.132812 176.246094 169.679688 175.683594 C 178.742188 175.050781 184.324219 174.738281 184.3125 174.300781 C 184.3125 173.984375 178.742188 173.449219 169.554688 173.300781 C 164.960938 173.25 159.445312 173.355469 153.289062 174.050781 C 146.5625 174.804688 132.277344 179.414062 132.277344 179.414062 C 125.890625 178.597656 106.378906 175.628906 102.128906 170.761719 C 102.210938 169.363281 102.265625 168.414062 102.273438 167.734375 Z M 188.839844 123.082031 C 189.074219 120.277344 188.917969 117.640625 188.46875 115.136719 C 188.527344 115.042969 188.589844 114.949219 188.664062 114.828125 C 189.003906 114.339844 189.417969 113.5625 189.914062 112.535156 C 190.878906 110.476562 191.824219 107.222656 191.910156 103.09375 C 191.996094 98.976562 191.167969 94.070312 189.320312 88.960938 C 187.472656 83.832031 184.613281 78.632812 181.808594 73.175781 C 179.019531 67.730469 176.605469 62.402344 175.609375 57.289062 C 174.121094 49.578125 175.367188 40.644531 180.605469 35.429688 C 181.015625 35.042969 181.375 34.703125 181.695312 34.40625 C 182.019531 34.121094 182.324219 33.921875 182.5625 33.738281 C 183.035156 33.378906 183.289062 33.195312 183.289062 33.195312 C 183.289062 33.195312 183.019531 33.355469 182.507812 33.664062 C 182.261719 33.832031 181.925781 33.996094 181.574219 34.261719 C 181.230469 34.53125 180.832031 34.84375 180.386719 35.195312 C 174.6875 39.976562 172.578125 49.085938 173.902344 57.59375 C 174.769531 63.042969 177.160156 68.601562 179.980469 74.113281 C 182.816406 79.617188 185.746094 84.695312 187.699219 89.574219 C 189.664062 94.457031 190.714844 99.132812 190.882812 103.105469 C 191.054688 107.085938 190.394531 110.308594 189.617188 112.410156 C 189.21875 113.460938 188.878906 114.269531 188.582031 114.785156 C 188.535156 114.882812 188.496094 114.964844 188.460938 115.042969 C 186.414062 103.707031 178.273438 95.039062 171.066406 85.765625 C 147.402344 55.3125 160.9375 30.699219 192.21875 7.855469 C 184.046875 41.566406 228.691406 56.234375 207.65625 111.601562 C 207.546875 111.886719 207.578125 112.152344 207.671875 112.386719 C 198.675781 128.828125 184.929688 142.140625 178.882812 159.921875 C 176.609375 148.074219 187.898438 134.65625 188.839844 123.082031 Z M 271.984375 209.234375 C 274.855469 204.773438 279.664062 201.777344 285.351562 202.945312 C 291.648438 204.238281 294.527344 209.886719 295.878906 215.597656 C 301.492188 239.367188 293.71875 267.207031 270.449219 275.925781 C 267.433594 275.527344 264.367188 275.167969 261.242188 274.816406 C 266.816406 257.390625 270.917969 235.8125 271.984375 209.234375 Z M 260.101562 278.277344 C 260.167969 278.101562 260.230469 277.925781 260.285156 277.742188 C 261 277.839844 261.710938 277.914062 262.417969 278.011719 C 261.660156 278.128906 260.878906 278.199219 260.101562 278.277344 Z M 311.472656 201.425781 C 320.207031 228.691406 310.496094 302.574219 253.65625 294.441406 C 254.246094 293.15625 254.835938 291.847656 255.410156 290.5 C 273.265625 292.242188 289.6875 282.054688 296.183594 270.140625 C 297.429688 267.84375 297.878906 266.476562 297.722656 266.402344 C 297.542969 266.304688 296.738281 267.484375 295.191406 269.5 C 286.761719 280.484375 272.15625 287.886719 257.125 286.363281 C 257.636719 285.082031 258.125 283.796875 258.492188 282.816406 C 284.816406 285.054688 301.125 256.425781 302.105469 233.1875 C 302.574219 222.191406 302.085938 205.304688 290.597656 199.703125 C 283.875 196.414062 276.527344 198.210938 272.171875 203.046875 C 272.171875 202.863281 272.175781 202.59375 272.175781 202.578125 C 277.390625 197.707031 285.226562 195.71875 292.808594 198.472656 C 295.605469 199.480469 297.664062 200.84375 299.027344 201.839844 C 300.394531 202.855469 301.125 203.488281 301.292969 203.347656 C 301.417969 203.253906 300.992188 202.347656 299.824219 200.972656 C 293.710938 193.816406 282.054688 191.371094 272.253906 197.230469 C 272.261719 195.34375 272.257812 193.429688 272.238281 191.492188 C 283.40625 178.257812 304.582031 179.777344 311.472656 201.425781 Z M 361.933594 312.9375 C 358.824219 295.03125 319.910156 285.128906 302.320312 281.277344 C 307.535156 273.835938 316.191406 255.175781 318.667969 236.777344 C 326.8125 175.875 287.675781 169.570312 272.144531 185.890625 C 272.101562 184.554688 271.984375 178.875 271.515625 171.230469 C 271.394531 169.253906 271.277344 167.390625 271.304688 166.957031 C 271.304688 167.039062 271.289062 167.109375 271.277344 167.148438 L 270.078125 166.90625 C 269.652344 166.054688 268.941406 165.148438 268.035156 164.328125 C 255.398438 153.289062 203.476562 152.105469 187.699219 151.851562 C 194.171875 138.6875 203.808594 126.972656 209.351562 113.234375 C 209.652344 113.160156 209.917969 112.964844 210.074219 112.625 C 236.464844 55.882812 180.347656 37.320312 198.320312 5.902344 C 199.441406 3.949219 197.242188 0 195.207031 1.453125 C 181.835938 11.035156 167.929688 21.109375 159.632812 35.710938 C 151.625 49.800781 151.425781 63.320312 159.34375 77.667969 C 167.832031 93.039062 186.53125 105.421875 183.230469 124.964844 C 181.757812 133.640625 175.9375 142.804688 174.015625 151.878906 C 160.167969 152 102.394531 154.1875 97.125 167.121094 L 96.980469 167.148438 C 96.964844 167.109375 96.953125 167.039062 96.953125 166.957031 C 96.964844 167.082031 96.953125 167.308594 96.9375 167.617188 C 96.507812 168.625 96.1875 169.753906 96.425781 170.632812 C 93.941406 197.945312 96.101562 241.621094 107.464844 276.234375 C 87.285156 279.003906 62.785156 283.726562 43.972656 291.519531 C 7.445312 306.847656 4.53125 331.675781 73.539062 349.488281 C 80.433594 365.773438 139.839844 371.445312 157.925781 372.667969 C 228.632812 377.285156 299.582031 366.613281 307.265625 349.53125 C 307.269531 349.527344 307.277344 349.527344 307.289062 349.527344 C 316.988281 347.117188 325.667969 344.441406 333.140625 341.476562 C 340.71875 341.910156 347.972656 340.042969 350.246094 332.769531 C 357.457031 327.851562 363.445312 321.457031 361.933594 312.9375 " fill-opacity="1" fill-rule="nonzero"/><path fill="#59371c" d="M 149.25 67.871094 C 152.21875 88.578125 175.300781 107.453125 168.714844 125.886719 C 166.289062 111.871094 146.421875 108.898438 146.535156 82.242188 C 146.5625 77.273438 148.109375 72.613281 149.25 67.871094 Z M 153.5625 111.484375 C 160.792969 118.773438 165.828125 123.714844 165.914062 134.414062 C 165.914062 132.976562 169.800781 130.746094 170.636719 129.394531 C 172.210938 126.84375 172.785156 123.25 173.078125 120.324219 C 173.679688 114.230469 172.429688 108.03125 170.226562 102.359375 C 166.285156 92.195312 158.546875 86.277344 155.125 75.839844 C 154.152344 72.867188 148.636719 64.46875 149.691406 61.4375 C 147.503906 67.722656 145.4375 74.226562 144.078125 80.746094 C 141.953125 90.996094 145.742188 103.589844 153.5625 111.484375 " fill-opacity="1" fill-rule="nonzero"/><path fill="#59371c" d="M 143.542969 335.027344 C 140.675781 334.921875 137.253906 334.601562 133.480469 334.175781 C 129.703125 333.691406 125.585938 333.039062 121.277344 332.171875 C 116.992188 331.261719 112.933594 330.238281 109.292969 329.171875 C 105.679688 328.035156 102.421875 326.953125 99.769531 325.875 C 94.417969 323.789062 91.253906 322.070312 90.964844 322.511719 C 90.707031 322.855469 93.46875 325.367188 98.753906 328.097656 C 101.371094 329.503906 104.640625 330.851562 108.316406 332.183594 C 112.011719 333.453125 116.175781 334.613281 120.582031 335.550781 C 125.007812 336.429688 129.277344 337.015625 133.171875 337.339844 C 137.074219 337.59375 140.605469 337.671875 143.550781 337.46875 C 149.492188 337.125 153.042969 336.058594 152.960938 335.578125 C 152.894531 335.109375 149.292969 335.308594 143.542969 335.027344 " fill-opacity="1" fill-rule="nonzero"/><path fill="#59371c" d="M 235.386719 304.804688 C 234.191406 307.570312 233.527344 309.101562 233.527344 309.101562 C 233.527344 309.101562 234.292969 307.617188 235.675781 304.941406 C 236.023438 304.269531 236.402344 303.523438 236.820312 302.707031 C 244.414062 287.15625 249.445312 269.527344 252.5625 252.742188 C 255.921875 234.238281 257.773438 212.304688 258.53125 193.433594 C 255.867188 216.183594 254.039062 233.128906 250.542969 252.363281 C 247.261719 270.015625 242.550781 288.394531 235.386719 304.804688 " fill-opacity="1" fill-rule="nonzero"/><path fill="#59371c" d="M 243.121094 257.035156 C 245.464844 242.214844 246.648438 228.667969 247.300781 218.871094 C 247.953125 209.070312 248.132812 203 248.132812 203 C 248.132812 203 247.421875 209.035156 246.28125 218.777344 C 245.117188 228.515625 243.425781 241.953125 241.09375 256.710938 C 238.089844 275.765625 234.308594 293.867188 231.347656 305.632812 C 230.699219 308.296875 230.34375 309.773438 230.34375 309.773438 C 230.34375 309.773438 230.8125 308.332031 231.660156 305.722656 C 235.875 292.855469 240.304688 274.898438 243.121094 257.035156 " fill-opacity="1" fill-rule="nonzero"/><path fill="#59371c" d="M 108.351562 220.304688 C 107.195312 210.789062 106.875 201.792969 106.609375 192.972656 C 106.28125 202.277344 106.140625 210.832031 106.953125 220.433594 C 108.367188 244.210938 115.550781 271.066406 122.777344 288.15625 C 125.222656 294.371094 129.539062 303.539062 132.316406 308.621094 C 133.808594 311.394531 134.636719 312.925781 134.636719 312.925781 C 134.636719 312.925781 133.910156 311.347656 132.601562 308.480469 C 121.140625 284.050781 111.089844 248.949219 108.351562 220.304688 " fill-opacity="1" fill-rule="nonzero"/><path fill="#59371c" d="M 312.441406 312.582031 C 310.011719 306.546875 304.734375 301.421875 298.394531 299.246094 C 296.546875 298.605469 295.773438 298.496094 294.441406 298.25 C 295.871094 298.992188 296.273438 299.164062 297.953125 300.171875 C 300.058594 301.433594 302.773438 303.390625 305.429688 305.898438 C 308.078125 308.425781 310.175781 311.03125 311.535156 313.070312 C 312.628906 314.6875 312.824219 315.082031 313.648438 316.480469 C 313.648438 316.480469 313.558594 316.101562 313.390625 315.421875 C 313.234375 314.730469 312.921875 313.761719 312.441406 312.582031 " fill-opacity="1" fill-rule="nonzero"/><path fill="#59371c" d="M 238.40625 227.757812 C 233.351562 261.269531 230.542969 277.144531 223.824219 310.3125 C 231.765625 285.777344 237.476562 253.195312 238.40625 227.757812 " fill-opacity="1" fill-rule="nonzero"/><path fill="#59371c" d="M 182.523438 196.101562 C 188.765625 196.285156 195.644531 196.226562 202.835938 195.734375 C 210.03125 195.214844 216.84375 194.304688 223 193.246094 C 226.0625 192.671875 228.984375 192.140625 231.6875 191.5 C 234.402344 190.925781 236.90625 190.277344 239.183594 189.679688 C 241.472656 189.113281 243.507812 188.472656 245.308594 187.949219 C 247.105469 187.433594 248.636719 186.933594 249.886719 186.507812 C 252.378906 185.671875 253.761719 185.207031 253.761719 185.207031 C 253.761719 185.207031 252.351562 185.5625 249.792969 186.199219 C 248.523438 186.535156 246.964844 186.921875 245.140625 187.320312 C 243.3125 187.722656 241.257812 188.242188 238.945312 188.679688 C 227.355469 191.070312 215.640625 192.742188 202.6875 193.6875 C 195.5625 194.171875 188.753906 194.355469 182.554688 194.367188 C 179.460938 194.324219 176.511719 194.324219 173.753906 194.191406 C 165.171875 193.972656 156.84375 193.078125 150.9375 192.460938 C 158.574219 193.878906 165.589844 195.035156 173.679688 195.597656 C 176.441406 195.847656 179.40625 195.960938 182.523438 196.101562 " fill-opacity="1" fill-rule="nonzero"/><path fill="#59371c" d="M 196.414062 66.734375 C 198.992188 70.109375 201.886719 75.324219 203.222656 81.59375 C 204.558594 87.855469 204.039062 93.800781 203.058594 97.9375 C 202.574219 100.011719 202.03125 101.671875 201.601562 102.796875 C 201.160156 103.917969 200.910156 104.542969 200.910156 104.542969 C 200.910156 104.542969 201.28125 103.988281 201.890625 102.933594 C 202.5 101.882812 203.296875 100.292969 204.046875 98.230469 C 205.554688 94.140625 206.652344 87.867188 205.230469 81.164062 C 203.804688 74.460938 200.242188 69.1875 197.195312 66.066406 C 195.671875 64.484375 194.296875 63.363281 193.3125 62.644531 C 192.328125 61.929688 191.761719 61.574219 191.761719 61.574219 C 191.761719 61.574219 192.238281 62.042969 193.101562 62.886719 C 193.953125 63.738281 195.125 65.03125 196.414062 66.734375 " fill-opacity="1" fill-rule="nonzero"/><path fill="#59371c" d="M 161.621094 108.914062 C 155.5625 102.777344 151.578125 95.921875 150.269531 85.539062 C 148.671875 94.644531 152.339844 103.929688 161.621094 108.914062 " fill-opacity="1" fill-rule="nonzero"/></svg>