<svg xmlns="http://www.w3.org/2000/svg" xmlns:xlink="http://www.w3.org/1999/xlink" width="500" zoomAndPan="magnify" viewBox="0 0 375 374.999991" height="500" preserveAspectRatio="xMidYMid meet" version="1.0"><defs><clipPath id="id1"><path d="M 26.808594 26.808594 L 348.558594 26.808594 L 348.558594 348.558594 L 26.808594 348.558594 Z M 26.808594 26.808594 " clip-rule="nonzero"/></clipPath><clipPath id="id2"><path d="M 26.808594 26.808594 L 348.558594 26.808594 L 348.558594 348.558594 L 26.808594 348.558594 Z M 26.808594 26.808594 " clip-rule="nonzero"/></clipPath><clipPath id="id3"><path d="M 187.683594 26.808594 C 98.835938 26.808594 26.808594 98.835938 26.808594 187.683594 C 26.808594 276.53125 98.835938 348.558594 187.683594 348.558594 C 276.53125 348.558594 348.558594 276.53125 348.558594 187.683594 C 348.558594 98.835938 276.53125 26.808594 187.683594 26.808594 " clip-rule="nonzero"/></clipPath><clipPath id="id4"><path d="M 70 45.210938 L 306 45.210938 L 306 302 L 70 302 Z M 70 45.210938 " clip-rule="nonzero"/></clipPath></defs><g clip-path="url(#id1)"><path fill="#ffde59" d="M 187.683594 26.808594 C 98.835938 26.808594 26.808594 98.835938 26.808594 187.683594 C 26.808594 276.53125 98.835938 348.558594 187.683594 348.558594 C 276.53125 348.558594 348.558594 276.53125 348.558594 187.683594 C 348.558594 98.835938 276.53125 26.808594 187.683594 26.808594 " fill-opacity="1" fill-rule="nonzero"/></g><g clip-path="url(#id2)"><g clip-path="url(#id3)"><path stroke-linecap="butt" transform="matrix(0.750875, 0, 0, 0.750875, 26.809212, 26.809208)" fill="none" stroke-linejoin="miter" d="M 214.249214 -0.000817832 C 95.923721 -0.000817832 -0.000823825 95.923727 -0.000823825 214.24922 C -0.000823825 332.574713 95.923721 428.499257 214.249214 428.499257 C 332.574707 428.499257 428.499251 332.574713 428.499251 214.24922 C 428.499251 95.923727 332.574707 -0.000817832 214.249214 -0.000817832 " stroke="#59371c" stroke-width="16" stroke-opacity="1" stroke-miterlimit="4"/></g></g><path fill="#59371c" d="M 177.695312 161.507812 C 177.636719 161.507812 177.636719 161.601562 177.695312 161.601562 C 177.753906 161.601562 177.753906 161.507812 177.695312 161.507812 " fill-opacity="1" fill-rule="nonzero"/><g clip-path="url(#id4)"><path fill="#59371c" d="M 297.292969 269.160156 L 295.949219 267.445312 C 295.757812 267.21875 295.492188 267.191406 295.253906 267.277344 C 291.128906 264.710938 284.382812 265.71875 280.082031 265.644531 C 266.648438 265.421875 258.917969 264.308594 222.574219 262.066406 C 224.789062 258.917969 227.027344 255.28125 229.171875 251.089844 C 232.140625 252.496094 236.5 251.941406 240.238281 251.160156 C 252.351562 254.304688 256.96875 259.304688 261.628906 264.605469 L 262.050781 264.253906 C 257.335938 258.097656 253.550781 254.042969 243.871094 250.335938 C 250.957031 248.664062 258.011719 245.816406 262.730469 240.296875 C 283.679688 244.894531 314.097656 255.992188 297.292969 269.160156 Z M 291.378906 275.960938 C 289.351562 276.628906 287.167969 276.417969 285.070312 276.109375 C 284.9375 276.027344 284.8125 275.941406 284.691406 275.84375 C 284.554688 275.898438 284.417969 275.953125 284.273438 276 C 225.039062 268.175781 264.242188 271.941406 223.257812 268.519531 C 171.269531 264.179688 185.15625 279.597656 154.65625 279.351562 C 146.402344 279.277344 138.230469 277.921875 130.417969 275.253906 C 126.558594 273.929688 122.792969 272.355469 119.191406 270.433594 C 117.875 269.738281 115.167969 268.519531 114.660156 267.074219 C 113.53125 263.859375 117.695312 262.523438 119.847656 262.597656 C 120.09375 262.597656 120.257812 262.402344 120.296875 262.195312 C 127.667969 261.105469 135.277344 261.707031 142.59375 262.933594 C 147.140625 263.695312 151.640625 264.71875 156.070312 265.976562 C 160.277344 267.164062 164.753906 269.5625 169.085938 269.902344 C 169.925781 269.96875 170.464844 268.722656 169.800781 268.164062 C 165.730469 264.789062 151.480469 261.609375 148.117188 260.9375 C 143.730469 254.90625 139.207031 246.886719 135.476562 236.359375 C 135.21875 235.644531 134.972656 234.921875 134.726562 234.179688 C 129.277344 217.847656 125.734375 195.792969 127.175781 166.273438 C 142.574219 175.617188 204.351562 178.421875 233.515625 168.769531 C 236.09375 167.890625 238.21875 166.949219 239.808594 165.851562 C 239.027344 166.390625 240.128906 175.6875 240.140625 177.015625 C 240.171875 180.96875 240.113281 184.925781 239.949219 188.871094 C 239.621094 196.828125 238.867188 204.769531 237.550781 212.625 C 235.128906 227.113281 230.824219 241.792969 223.175781 254.402344 C 222.617188 255.328125 219.25 261.875 218.226562 261.816406 C 199.035156 260.8125 182.9375 260.410156 172.628906 269.453125 C 172.226562 269.8125 172.75 270.371094 173.175781 270.160156 C 187.929688 263.136719 204.09375 263.511719 220.125 264.757812 L 220.421875 264.984375 C 220.464844 264.921875 220.519531 264.855469 220.5625 264.792969 C 226.445312 265.25 232.3125 265.820312 238.082031 266.167969 C 249.757812 266.882812 261.4375 267.585938 273.109375 268.234375 C 289.574219 269.175781 291.8125 266.980469 295.550781 271.667969 C 295.171875 273.628906 293.4375 275.277344 291.378906 275.960938 Z M 184.089844 274.847656 C 192.316406 271.078125 201.886719 270.847656 210.890625 271.269531 C 209.246094 271.792969 200.320312 275.605469 184.089844 274.847656 Z M 113.769531 261.460938 C 114.769531 259.609375 116.597656 257.84375 118.914062 256.488281 C 121.21875 255.117188 124.183594 253.972656 127.992188 252.976562 C 131.09375 252.214844 134.371094 251.519531 137.738281 250.917969 L 137.753906 250.914062 C 139.484375 254.300781 141.269531 257.351562 143.0625 260.050781 C 142.5625 259.976562 142.066406 259.902344 141.5625 259.839844 C 133.550781 258.800781 124.695312 258.515625 117.082031 261.679688 C 115.363281 261.929688 113.699219 262.667969 112.769531 264.007812 C 112.957031 263.222656 113.261719 262.367188 113.769531 261.460938 Z M 234.175781 286.445312 C 162.835938 293.859375 74.742188 282.089844 73.484375 261.71875 C 73.472656 261.699219 73.472656 261.542969 73.464844 261.652344 C 73.308594 247.34375 117.183594 238.980469 131.796875 236.863281 C 133.320312 241.257812 134.980469 245.214844 136.714844 248.816406 C 133.535156 249.523438 130.433594 250.316406 127.484375 251.183594 C 123.589844 252.386719 120.546875 253.738281 118.183594 255.320312 C 115.753906 256.910156 113.882812 258.941406 112.917969 261.023438 C 112.003906 262.910156 111.847656 264.566406 111.8125 265.804688 C 111.792969 266.285156 111.828125 266.667969 111.847656 266.945312 L 111.886719 267.503906 L 112.167969 267.492188 C 113.148438 271.269531 119.085938 273.8125 121.902344 275.242188 C 135.382812 282.085938 151.863281 284.742188 166.804688 282.214844 C 171.015625 281.511719 174.671875 279.679688 178.304688 277.777344 C 196.070312 279.945312 216.472656 275.21875 216.984375 271.632812 C 224.578125 272.105469 232.253906 272.511719 239.800781 273.289062 C 250.460938 274.371094 253.351562 275.621094 276.878906 278.507812 C 263.71875 282.507812 247.796875 285.007812 234.175781 286.445312 Z M 180.109375 297.011719 C 175.445312 296.941406 170.679688 296.78125 165.839844 296.511719 C 153.128906 295.804688 124.09375 293.210938 113.464844 286.234375 C 155.167969 295.359375 217.140625 296.105469 262.074219 286.277344 C 246.691406 296.257812 198.617188 297.25 180.109375 297.011719 Z M 127.496094 160.257812 C 131.917969 156.929688 139.757812 155.265625 145.460938 154.234375 C 157.945312 151.910156 175.351562 151.246094 176.265625 151.320312 C 175.949219 154.121094 176.304688 156.902344 177.839844 159.621094 C 162.457031 160.054688 150.792969 162.207031 137.878906 165.691406 C 151.179688 163.019531 162.621094 161.324219 178.714844 161.003906 C 178.738281 161.027344 178.753906 161.058594 178.773438 161.085938 C 179.523438 162.113281 181.390625 162.277344 181.90625 160.96875 C 198 160.976562 209.105469 162.371094 223.0625 164.90625 C 209.457031 161.503906 197.820312 159.648438 182.265625 159.570312 C 182.914062 156.644531 183.886719 153.871094 185.082031 151.203125 C 207.976562 151.207031 233.640625 155.234375 238.824219 160.238281 C 239.691406 161.136719 239.503906 161.355469 239.523438 161.390625 C 239.515625 161.445312 239.503906 161.507812 239.5 161.582031 C 239.488281 161.667969 239.46875 161.8125 239.441406 161.769531 L 239.441406 161.757812 C 239.40625 161.75 239.203125 162.140625 238.769531 162.519531 C 233.46875 167.207031 212.402344 168.996094 205.730469 169.484375 C 197.128906 170.015625 189.28125 170.371094 177.566406 170.246094 C 168.644531 170.148438 161.453125 169.71875 154.21875 168.96875 C 161.539062 166.714844 168.453125 166.09375 173.617188 165.707031 C 179.816406 165.273438 183.636719 165.0625 183.628906 164.761719 C 183.628906 164.542969 179.816406 164.175781 173.53125 164.074219 C 170.386719 164.039062 166.613281 164.109375 162.402344 164.585938 C 157.800781 165.105469 148.027344 168.269531 148.027344 168.269531 C 143.65625 167.707031 130.304688 165.671875 127.398438 162.332031 C 127.453125 161.371094 127.488281 160.722656 127.496094 160.257812 Z M 186.726562 129.632812 C 186.886719 127.707031 186.777344 125.898438 186.472656 124.179688 C 186.511719 124.117188 186.554688 124.050781 186.605469 123.96875 C 186.839844 123.632812 187.121094 123.101562 187.460938 122.394531 C 188.121094 120.984375 188.769531 118.75 188.828125 115.921875 C 188.886719 113.097656 188.320312 109.730469 187.054688 106.226562 C 185.792969 102.707031 183.835938 99.140625 181.914062 95.398438 C 180.003906 91.667969 178.355469 88.011719 177.671875 84.503906 C 176.65625 79.214844 177.507812 73.089844 181.09375 69.511719 C 181.371094 69.246094 181.621094 69.011719 181.835938 68.808594 C 182.058594 68.613281 182.269531 68.476562 182.429688 68.351562 C 182.753906 68.101562 182.929688 67.976562 182.929688 67.976562 C 182.929688 67.976562 182.742188 68.089844 182.394531 68.300781 C 182.222656 68.414062 181.996094 68.527344 181.757812 68.710938 C 181.519531 68.894531 181.246094 69.109375 180.941406 69.347656 C 177.042969 72.628906 175.597656 78.875 176.503906 84.710938 C 177.097656 88.449219 178.734375 92.261719 180.664062 96.042969 C 182.605469 99.820312 184.609375 103.300781 185.945312 106.648438 C 187.292969 109.996094 188.011719 113.203125 188.125 115.929688 C 188.242188 118.660156 187.789062 120.867188 187.257812 122.308594 C 186.984375 123.03125 186.753906 123.585938 186.550781 123.941406 C 186.515625 124.007812 186.492188 124.0625 186.464844 124.117188 C 185.066406 116.339844 179.496094 110.394531 174.566406 104.035156 C 158.375 83.148438 167.632812 66.265625 189.039062 50.597656 C 183.449219 73.71875 213.992188 83.78125 199.597656 121.753906 C 199.527344 121.953125 199.546875 122.132812 199.609375 122.296875 C 193.457031 133.570312 184.050781 142.703125 179.914062 154.898438 C 178.359375 146.769531 186.082031 137.570312 186.726562 129.632812 Z M 243.613281 188.71875 C 245.578125 185.660156 248.871094 183.605469 252.761719 184.40625 C 257.070312 185.292969 259.039062 189.167969 259.964844 193.085938 C 263.804688 209.390625 258.488281 228.484375 242.5625 234.464844 C 240.5 234.191406 238.402344 233.941406 236.265625 233.703125 C 240.082031 221.75 242.886719 206.949219 243.613281 188.71875 Z M 235.484375 236.074219 C 235.53125 235.957031 235.574219 235.835938 235.609375 235.710938 C 236.101562 235.777344 236.585938 235.828125 237.070312 235.894531 C 236.550781 235.976562 236.015625 236.023438 235.484375 236.074219 Z M 270.632812 183.363281 C 276.609375 202.0625 269.964844 252.742188 231.074219 247.160156 C 231.480469 246.28125 231.882812 245.382812 232.277344 244.460938 C 244.492188 245.652344 255.726562 238.664062 260.171875 230.496094 C 261.027344 228.921875 261.332031 227.980469 261.226562 227.929688 C 261.105469 227.863281 260.550781 228.671875 259.492188 230.054688 C 253.726562 237.589844 243.734375 242.667969 233.445312 241.621094 C 233.796875 240.742188 234.132812 239.863281 234.382812 239.191406 C 252.394531 240.722656 263.554688 221.089844 264.226562 205.148438 C 264.546875 197.609375 264.210938 186.027344 256.351562 182.183594 C 251.75 179.929688 246.726562 181.160156 243.742188 184.476562 C 243.742188 184.351562 243.746094 184.167969 243.746094 184.15625 C 247.3125 180.816406 252.675781 179.449219 257.863281 181.339844 C 259.777344 182.03125 261.183594 182.964844 262.117188 183.648438 C 263.054688 184.34375 263.554688 184.78125 263.667969 184.683594 C 263.753906 184.617188 263.460938 183.996094 262.664062 183.054688 C 258.480469 178.148438 250.503906 176.46875 243.796875 180.484375 C 243.804688 179.191406 243.800781 177.878906 243.789062 176.550781 C 251.429688 167.472656 265.921875 168.515625 270.632812 183.363281 Z M 305.160156 259.847656 C 303.035156 247.566406 276.410156 240.777344 264.371094 238.132812 C 267.941406 233.03125 273.863281 220.230469 275.558594 207.613281 C 281.128906 165.839844 254.351562 161.515625 243.726562 172.710938 C 243.695312 171.792969 243.613281 167.898438 243.292969 162.65625 C 243.210938 161.296875 243.132812 160.019531 243.148438 159.722656 C 243.148438 159.78125 243.140625 159.828125 243.132812 159.851562 L 242.308594 159.6875 C 242.019531 159.101562 241.53125 158.484375 240.914062 157.921875 C 232.269531 150.347656 196.738281 149.535156 185.945312 149.363281 C 190.375 140.332031 196.96875 132.300781 200.761719 122.875 C 200.964844 122.824219 201.148438 122.691406 201.253906 122.457031 C 219.3125 83.539062 180.914062 70.808594 193.214844 49.257812 C 193.980469 47.917969 192.476562 45.210938 191.082031 46.207031 C 181.933594 52.777344 172.417969 59.6875 166.742188 69.703125 C 161.261719 79.367188 161.125 88.640625 166.542969 98.480469 C 172.351562 109.023438 185.144531 117.515625 182.886719 130.921875 C 181.882812 136.871094 177.898438 143.15625 176.582031 149.378906 C 167.109375 149.464844 127.578125 150.964844 123.972656 159.835938 L 123.875 159.851562 C 123.863281 159.828125 123.855469 159.78125 123.855469 159.722656 C 123.863281 159.808594 123.855469 159.964844 123.84375 160.175781 C 123.550781 160.867188 123.332031 161.640625 123.496094 162.246094 C 121.796875 180.976562 123.273438 210.933594 131.050781 234.675781 C 117.242188 236.574219 100.476562 239.816406 87.605469 245.160156 C 62.613281 255.671875 60.617188 272.703125 107.835938 284.917969 C 112.554688 296.085938 153.199219 299.980469 165.574219 300.816406 C 213.953125 303.984375 262.496094 296.664062 267.753906 284.949219 C 267.757812 284.945312 267.761719 284.945312 267.769531 284.945312 C 274.40625 283.292969 280.347656 281.457031 285.460938 279.425781 C 290.644531 279.71875 295.609375 278.441406 297.164062 273.453125 C 302.097656 270.078125 306.195312 265.691406 305.160156 259.847656 " fill-opacity="1" fill-rule="nonzero"/></g><path fill="#59371c" d="M 159.636719 91.761719 C 161.667969 105.964844 177.464844 118.910156 172.957031 131.550781 C 171.296875 121.941406 157.703125 119.902344 157.78125 101.617188 C 157.800781 98.210938 158.855469 95.015625 159.636719 91.761719 Z M 162.589844 121.675781 C 167.535156 126.675781 170.980469 130.0625 171.039062 137.402344 C 171.039062 136.417969 173.699219 134.886719 174.273438 133.957031 C 175.347656 132.210938 175.742188 129.746094 175.941406 127.738281 C 176.355469 123.558594 175.5 119.304688 173.992188 115.417969 C 171.292969 108.445312 166 104.386719 163.660156 97.226562 C 162.992188 95.1875 159.21875 89.425781 159.941406 87.351562 C 158.445312 91.660156 157.027344 96.121094 156.101562 100.589844 C 154.644531 107.625 157.238281 116.261719 162.589844 121.675781 " fill-opacity="1" fill-rule="nonzero"/><path fill="#59371c" d="M 155.730469 275 C 153.769531 274.925781 151.429688 274.707031 148.847656 274.417969 C 146.265625 274.082031 143.445312 273.636719 140.496094 273.042969 C 137.566406 272.417969 134.789062 271.714844 132.296875 270.984375 C 129.824219 270.203125 127.597656 269.460938 125.78125 268.722656 C 122.121094 267.292969 119.957031 266.113281 119.757812 266.414062 C 119.582031 266.652344 121.472656 268.375 125.085938 270.246094 C 126.878906 271.210938 129.113281 272.136719 131.632812 273.050781 C 134.160156 273.921875 137.007812 274.714844 140.023438 275.359375 C 143.050781 275.960938 145.972656 276.363281 148.636719 276.585938 C 151.304688 276.757812 153.722656 276.816406 155.738281 276.675781 C 159.804688 276.4375 162.230469 275.707031 162.175781 275.378906 C 162.132812 275.054688 159.667969 275.191406 155.730469 275 " fill-opacity="1" fill-rule="nonzero"/><path fill="#59371c" d="M 218.574219 254.273438 C 217.757812 256.167969 217.304688 257.21875 217.304688 257.21875 C 217.304688 257.21875 217.824219 256.199219 218.773438 254.363281 C 219.007812 253.902344 219.269531 253.390625 219.554688 252.832031 C 224.75 242.164062 228.191406 230.074219 230.324219 218.5625 C 232.625 205.871094 233.894531 190.824219 234.410156 177.882812 C 232.589844 193.488281 231.335938 205.109375 228.945312 218.304688 C 226.699219 230.410156 223.476562 243.015625 218.574219 254.273438 " fill-opacity="1" fill-rule="nonzero"/><path fill="#59371c" d="M 223.867188 221.507812 C 225.46875 211.339844 226.28125 202.050781 226.726562 195.332031 C 227.171875 188.609375 227.296875 184.445312 227.296875 184.445312 C 227.296875 184.445312 226.808594 188.582031 226.027344 195.265625 C 225.234375 201.945312 224.074219 211.164062 222.480469 221.285156 C 220.425781 234.351562 217.835938 246.769531 215.808594 254.835938 C 215.367188 256.667969 215.125 257.679688 215.125 257.679688 C 215.125 257.679688 215.445312 256.6875 216.023438 254.898438 C 218.910156 246.074219 221.9375 233.757812 223.867188 221.507812 " fill-opacity="1" fill-rule="nonzero"/><path fill="#59371c" d="M 131.652344 196.3125 C 130.863281 189.789062 130.644531 183.617188 130.464844 177.566406 C 130.238281 183.949219 130.140625 189.816406 130.699219 196.402344 C 131.664062 212.710938 136.582031 231.128906 141.527344 242.851562 C 143.199219 247.113281 146.152344 253.402344 148.050781 256.886719 C 149.074219 258.792969 149.640625 259.839844 149.640625 259.839844 C 149.640625 259.839844 149.144531 258.757812 148.246094 256.792969 C 140.40625 240.035156 133.527344 215.960938 131.652344 196.3125 " fill-opacity="1" fill-rule="nonzero"/><path fill="#59371c" d="M 271.296875 259.605469 C 269.636719 255.464844 266.023438 251.949219 261.6875 250.457031 C 260.421875 250.019531 259.890625 249.945312 258.980469 249.773438 C 259.957031 250.285156 260.234375 250.402344 261.382812 251.09375 C 262.824219 251.957031 264.683594 253.300781 266.5 255.023438 C 268.3125 256.753906 269.746094 258.539062 270.679688 259.941406 C 271.425781 261.050781 271.558594 261.320312 272.121094 262.28125 C 272.121094 262.28125 272.058594 262.019531 271.945312 261.550781 C 271.839844 261.078125 271.625 260.414062 271.296875 259.605469 " fill-opacity="1" fill-rule="nonzero"/><path fill="#59371c" d="M 220.640625 201.425781 C 217.179688 224.410156 215.261719 235.296875 210.664062 258.050781 C 216.097656 241.21875 220.003906 218.871094 220.640625 201.425781 " fill-opacity="1" fill-rule="nonzero"/><path fill="#59371c" d="M 182.40625 179.714844 C 186.675781 179.839844 191.382812 179.796875 196.300781 179.460938 C 201.222656 179.105469 205.886719 178.480469 210.097656 177.753906 C 212.195312 177.359375 214.191406 176.996094 216.042969 176.558594 C 217.898438 176.160156 219.613281 175.71875 221.171875 175.308594 C 222.738281 174.921875 224.132812 174.480469 225.363281 174.121094 C 226.59375 173.765625 227.640625 173.421875 228.496094 173.132812 C 230.199219 172.558594 231.148438 172.242188 231.148438 172.242188 C 231.148438 172.242188 230.183594 172.484375 228.433594 172.921875 C 227.5625 173.148438 226.496094 173.417969 225.246094 173.691406 C 224 173.96875 222.589844 174.320312 221.011719 174.621094 C 213.078125 176.261719 205.066406 177.40625 196.203125 178.058594 C 191.328125 178.390625 186.667969 178.515625 182.425781 178.523438 C 180.308594 178.492188 178.292969 178.492188 176.40625 178.402344 C 170.53125 178.253906 164.835938 177.640625 160.792969 177.214844 C 166.015625 178.1875 170.820312 178.980469 176.355469 179.367188 C 178.246094 179.539062 180.269531 179.617188 182.40625 179.714844 " fill-opacity="1" fill-rule="nonzero"/><path fill="#59371c" d="M 191.910156 90.984375 C 193.671875 93.296875 195.652344 96.875 196.566406 101.175781 C 197.480469 105.46875 197.125 109.546875 196.457031 112.382812 C 196.125 113.804688 195.753906 114.945312 195.457031 115.71875 C 195.15625 116.484375 194.984375 116.914062 194.984375 116.914062 C 194.984375 116.914062 195.238281 116.535156 195.65625 115.808594 C 196.074219 115.089844 196.617188 114 197.128906 112.582031 C 198.164062 109.777344 198.914062 105.476562 197.941406 100.878906 C 196.964844 96.28125 194.527344 92.664062 192.441406 90.523438 C 191.398438 89.4375 190.460938 88.667969 189.785156 88.175781 C 189.113281 87.6875 188.726562 87.441406 188.726562 87.441406 C 188.726562 87.441406 189.050781 87.765625 189.640625 88.34375 C 190.222656 88.929688 191.027344 89.816406 191.910156 90.984375 " fill-opacity="1" fill-rule="nonzero"/><path fill="#59371c" d="M 168.101562 119.910156 C 163.957031 115.703125 161.230469 111 160.335938 103.878906 C 159.242188 110.125 161.753906 116.492188 168.101562 119.910156 " fill-opacity="1" fill-rule="nonzero"/></svg>