<svg xmlns="http://www.w3.org/2000/svg" xmlns:xlink="http://www.w3.org/1999/xlink" width="500" zoomAndPan="magnify" viewBox="0 0 375 374.999991" height="500" preserveAspectRatio="xMidYMid meet" version="1.0"><defs><clipPath id="id1"><path d="M 54.765625 0 L 320.265625 0 L 320.265625 374 L 54.765625 374 Z M 54.765625 0 " clip-rule="nonzero"/></clipPath></defs><g clip-path="url(#id1)"><path fill="#564024" d="M 320.230469 236.652344 C 320.210938 236.257812 320.203125 235.863281 320.179688 235.46875 L 320.085938 234.289062 C 319.515625 227.996094 317.519531 221.855469 314.394531 216.34375 C 313.601562 214.972656 312.753906 213.628906 311.824219 212.339844 C 310.882812 211.058594 309.890625 209.808594 308.816406 208.628906 C 307.730469 207.460938 306.59375 206.320312 305.363281 205.289062 C 304.132812 204.253906 302.847656 203.28125 301.476562 202.414062 C 300.101562 201.558594 298.664062 200.785156 297.160156 200.140625 C 295.660156 199.492188 294.097656 198.984375 292.503906 198.601562 C 289.316406 197.839844 286.023438 197.636719 282.8125 197.832031 C 280.039062 198 277.3125 198.449219 274.660156 199.042969 C 274.605469 198.421875 274.550781 197.800781 274.476562 197.179688 C 274.132812 194.074219 273.546875 190.980469 272.644531 187.976562 L 271.917969 185.742188 L 271.078125 183.554688 L 270.125 181.40625 C 269.789062 180.699219 269.417969 180.011719 269.066406 179.308594 C 267.585938 176.558594 265.863281 173.945312 263.910156 171.5 C 261.96875 169.066406 259.800781 166.800781 257.46875 164.742188 C 252.800781 160.613281 247.460938 157.328125 241.878906 154.65625 C 241.859375 154.652344 241.84375 154.640625 241.828125 154.632812 C 242.617188 152.761719 243.289062 150.824219 243.78125 148.8125 C 244.171875 147.207031 244.449219 145.558594 244.566406 143.875 C 244.679688 142.1875 244.636719 140.472656 244.371094 138.765625 C 244.320312 138.34375 244.21875 137.917969 244.136719 137.492188 C 244.058594 137.070312 243.941406 136.652344 243.824219 136.230469 C 243.761719 136.023438 243.710938 135.8125 243.636719 135.609375 L 243.421875 134.996094 L 243.203125 134.378906 L 242.949219 133.777344 C 242.597656 132.976562 242.203125 132.203125 241.753906 131.457031 C 241.304688 130.714844 240.800781 130.007812 240.265625 129.328125 C 239.726562 128.660156 239.148438 128.027344 238.539062 127.433594 C 237.929688 126.839844 237.28125 126.289062 236.625 125.773438 C 235.964844 125.257812 235.277344 124.789062 234.582031 124.339844 C 233.886719 123.898438 233.171875 123.492188 232.453125 123.109375 C 231.007812 122.359375 229.53125 121.707031 228.027344 121.152344 C 226.535156 120.601562 225.019531 120.121094 223.5 119.714844 C 217.410156 118.089844 211.25 117.351562 205.117188 116.824219 C 198.980469 116.304688 192.851562 116.035156 186.738281 115.714844 C 180.621094 115.394531 174.511719 115.0625 168.425781 114.449219 C 165.386719 114.132812 162.355469 113.734375 159.351562 113.199219 C 156.355469 112.65625 153.375 111.976562 150.507812 111.035156 C 149.074219 110.566406 147.671875 110.019531 146.332031 109.386719 C 144.992188 108.75 143.710938 108.019531 142.558594 107.164062 C 141.414062 106.304688 140.414062 105.320312 139.660156 104.210938 C 138.90625 103.105469 138.425781 101.890625 138.214844 100.601562 C 138.09375 99.941406 138.054688 99.265625 138.042969 98.59375 C 138.03125 97.925781 138.085938 97.246094 138.171875 96.570312 C 138.253906 95.898438 138.40625 95.222656 138.574219 94.558594 C 138.746094 93.894531 138.960938 93.230469 139.195312 92.578125 C 140.171875 89.957031 141.625 87.464844 143.296875 85.117188 C 144.984375 82.757812 146.898438 80.539062 148.941406 78.429688 C 150.988281 76.316406 153.160156 74.300781 155.402344 72.355469 C 156.230469 71.636719 157.074219 70.929688 157.921875 70.226562 C 161.890625 74.6875 166.5625 78.558594 171.824219 81.4375 C 174.53125 82.917969 177.398438 84.125 180.355469 85 C 183.316406 85.871094 186.363281 86.46875 189.4375 86.769531 C 190.976562 86.925781 192.519531 87.003906 194.066406 87.015625 C 195.609375 87.023438 197.160156 86.941406 198.699219 86.789062 C 201.78125 86.488281 204.832031 85.816406 207.761719 84.757812 C 209.226562 84.230469 210.640625 83.578125 212.011719 82.832031 C 213.378906 82.082031 214.695312 81.238281 215.921875 80.261719 C 216.078125 80.144531 216.226562 80.023438 216.375 79.890625 L 216.824219 79.511719 L 217.273438 79.128906 L 217.699219 78.730469 C 217.980469 78.457031 218.269531 78.199219 218.546875 77.917969 C 218.816406 77.632812 219.082031 77.351562 219.347656 77.070312 C 220.394531 75.917969 221.371094 74.710938 222.277344 73.445312 C 223.179688 72.175781 224.011719 70.847656 224.699219 69.433594 C 225.050781 68.734375 225.359375 68 225.617188 67.25 C 225.882812 66.5 226.089844 65.722656 226.214844 64.925781 C 226.492188 63.335938 226.386719 61.613281 225.753906 60.058594 C 225.105469 58.5 223.960938 57.222656 222.675781 56.257812 C 221.378906 55.285156 219.945312 54.566406 218.472656 54 C 216.996094 53.433594 215.484375 53.015625 213.957031 52.6875 C 210.898438 52.042969 207.796875 51.753906 204.703125 51.667969 C 201.609375 51.585938 198.515625 51.714844 195.429688 52.019531 C 192.355469 52.320312 189.289062 52.785156 186.269531 53.433594 C 183.242188 54.085938 180.246094 54.882812 177.285156 55.84375 C 174.332031 56.808594 171.421875 57.917969 168.554688 59.160156 C 164.019531 61.136719 159.601562 63.453125 155.46875 66.253906 C 154.449219 64.90625 153.480469 63.515625 152.589844 62.082031 C 150.976562 59.5 149.59375 56.773438 148.511719 53.929688 C 147.4375 51.089844 146.65625 48.117188 146.441406 45.089844 C 146.386719 44.332031 146.367188 43.578125 146.398438 42.820312 C 146.40625 42.4375 146.441406 42.0625 146.46875 41.6875 C 146.511719 41.3125 146.546875 40.9375 146.613281 40.570312 C 146.855469 39.078125 147.316406 37.621094 148.03125 36.300781 C 148.75 34.976562 149.726562 33.808594 150.871094 32.824219 C 152.027344 31.851562 153.339844 31.070312 154.710938 30.429688 C 157.46875 29.152344 160.457031 28.417969 163.460938 27.890625 C 166.46875 27.367188 169.515625 27.046875 172.5625 26.8125 C 175.613281 26.574219 178.664062 26.414062 181.722656 26.234375 C 184.78125 26.0625 187.839844 25.878906 190.882812 25.605469 C 193.9375 25.34375 196.980469 24.972656 199.996094 24.433594 C 203.011719 23.871094 206 23.128906 208.851562 21.984375 C 211.691406 20.84375 214.40625 19.277344 216.597656 17.105469 C 217.691406 16.023438 218.644531 14.804688 219.421875 13.476562 C 220.203125 12.152344 220.800781 10.71875 221.222656 9.25 C 221.660156 7.773438 221.886719 6.246094 222 4.714844 C 222.089844 3.183594 222.042969 1.644531 221.871094 0.121094 C 221.863281 0.078125 221.828125 0.046875 221.785156 0.0507812 C 221.742188 0.0585938 221.710938 0.09375 221.714844 0.136719 C 221.894531 1.652344 221.9375 3.183594 221.84375 4.707031 C 221.742188 6.226562 221.507812 7.746094 221.074219 9.207031 C 220.652344 10.671875 220.0625 12.085938 219.285156 13.394531 C 218.515625 14.710938 217.570312 15.917969 216.484375 16.988281 C 214.3125 19.136719 211.613281 20.683594 208.789062 21.8125 C 205.953125 22.941406 202.96875 23.679688 199.964844 24.230469 C 196.957031 24.765625 193.917969 25.113281 190.867188 25.375 C 187.820312 25.632812 184.761719 25.804688 181.703125 25.96875 C 178.644531 26.136719 175.589844 26.285156 172.535156 26.519531 C 169.484375 26.746094 166.425781 27.046875 163.398438 27.558594 C 160.378906 28.082031 157.363281 28.800781 154.550781 30.085938 C 153.148438 30.730469 151.808594 31.523438 150.613281 32.515625 C 149.433594 33.519531 148.410156 34.730469 147.660156 36.097656 C 146.910156 37.460938 146.429688 38.964844 146.179688 40.496094 C 146.109375 40.875 146.066406 41.265625 146.019531 41.644531 C 145.988281 42.03125 145.949219 42.414062 145.9375 42.800781 C 145.90625 43.578125 145.917969 44.351562 145.96875 45.121094 C 146.171875 48.210938 146.941406 51.230469 148.011719 54.117188 C 149.089844 57 150.472656 59.769531 152.085938 62.390625 C 152.96875 63.835938 153.929688 65.246094 154.953125 66.605469 C 154.046875 67.226562 153.15625 67.871094 152.28125 68.546875 C 149.777344 70.46875 147.414062 72.578125 145.230469 74.890625 C 143.046875 77.203125 141.023438 79.695312 139.273438 82.410156 C 137.53125 85.128906 136.050781 88.074219 135.140625 91.285156 C 134.695312 92.890625 134.390625 94.566406 134.332031 96.269531 C 134.265625 97.972656 134.4375 99.707031 134.90625 101.363281 C 135.140625 102.199219 135.464844 103.042969 135.878906 103.816406 C 136.289062 104.597656 136.789062 105.324219 137.347656 105.984375 C 138.46875 107.304688 139.808594 108.34375 141.210938 109.183594 C 142.617188 110.019531 144.085938 110.664062 145.574219 111.199219 C 147.058594 111.742188 148.570312 112.160156 150.078125 112.523438 C 153.105469 113.25 156.152344 113.722656 159.195312 114.121094 C 162.25 114.515625 165.300781 114.824219 168.351562 115.101562 C 174.457031 115.660156 180.566406 116.085938 186.664062 116.625 C 192.761719 117.167969 198.847656 117.820312 204.863281 118.777344 C 207.871094 119.265625 210.863281 119.824219 213.808594 120.515625 C 216.757812 121.203125 219.660156 121.996094 222.464844 123 C 225.273438 123.988281 227.972656 125.191406 230.429688 126.671875 C 232.871094 128.160156 235.042969 129.96875 236.628906 132.128906 C 237.023438 132.671875 237.382812 133.230469 237.707031 133.808594 C 238.027344 134.386719 238.304688 134.988281 238.550781 135.597656 C 239.019531 136.835938 239.363281 138.121094 239.535156 139.449219 C 239.886719 142.101562 239.621094 144.882812 238.945312 147.613281 C 238.527344 149.300781 237.953125 150.964844 237.265625 152.601562 C 235.960938 152.066406 234.644531 151.558594 233.3125 151.078125 C 230.410156 150.03125 227.460938 149.109375 224.492188 148.285156 C 218.546875 146.640625 212.511719 145.378906 206.445312 144.367188 C 203.410156 143.859375 200.378906 143.386719 197.332031 142.988281 L 192.753906 142.402344 L 188.164062 141.933594 L 187.015625 141.816406 C 186.632812 141.78125 186.246094 141.761719 185.863281 141.730469 L 183.5625 141.566406 L 181.261719 141.398438 C 180.492188 141.355469 179.722656 141.328125 178.953125 141.289062 L 176.648438 141.183594 L 175.496094 141.128906 C 175.113281 141.109375 174.726562 141.109375 174.34375 141.097656 L 169.730469 141.011719 C 163.578125 140.992188 157.417969 141.222656 151.285156 141.707031 L 146.6875 142.132812 C 145.15625 142.292969 143.628906 142.496094 142.105469 142.671875 C 140.574219 142.839844 139.054688 143.09375 137.53125 143.3125 L 135.25 143.65625 C 134.867188 143.714844 134.492188 143.78125 134.113281 143.847656 L 132.972656 144.050781 L 130.703125 144.457031 C 129.945312 144.597656 129.183594 144.714844 128.433594 144.886719 L 123.917969 145.835938 L 123.351562 145.953125 L 122.792969 146.085938 L 121.671875 146.359375 L 119.425781 146.898438 L 118.304688 147.171875 L 117.746094 147.304688 L 117.1875 147.460938 L 114.957031 148.0625 L 112.730469 148.664062 L 112.175781 148.820312 L 111.625 148.984375 L 110.523438 149.316406 C 109.050781 149.765625 107.574219 150.203125 106.109375 150.664062 C 103.183594 151.613281 100.273438 152.621094 97.398438 153.722656 C 91.652344 155.9375 86.007812 158.476562 80.65625 161.578125 C 77.980469 163.128906 75.378906 164.820312 72.898438 166.691406 C 70.425781 168.574219 68.082031 170.632812 65.964844 172.929688 C 63.847656 175.222656 61.941406 177.746094 60.433594 180.515625 C 59.699219 181.910156 59.015625 183.332031 58.445312 184.808594 L 58.007812 185.914062 C 57.871094 186.292969 57.761719 186.667969 57.625 187.046875 L 57.4375 187.613281 C 57.375 187.804688 57.300781 187.988281 57.257812 188.1875 L 56.945312 189.34375 L 56.785156 189.921875 C 56.734375 190.113281 56.699219 190.300781 56.648438 190.492188 L 56.390625 191.632812 L 56.132812 192.769531 C 56.089844 192.960938 56.046875 193.152344 56.007812 193.339844 L 55.902344 193.914062 C 55.761719 194.675781 55.632812 195.445312 55.503906 196.214844 C 55.4375 196.59375 55.394531 196.984375 55.34375 197.371094 L 55.214844 198.535156 C 55.132812 199.308594 55.046875 200.082031 55.019531 200.859375 L 54.882812 203.191406 C 54.84375 203.964844 54.832031 204.746094 54.808594 205.523438 L 54.777344 206.691406 C 54.765625 207.078125 54.777344 207.464844 54.773438 207.859375 L 54.777344 210.191406 C 54.789062 210.964844 54.820312 211.746094 54.84375 212.523438 L 54.882812 213.691406 C 54.902344 214.078125 54.925781 214.46875 54.949219 214.855469 L 55.089844 217.179688 L 55.292969 219.503906 L 55.398438 220.667969 L 55.535156 221.824219 L 55.8125 224.144531 L 56.148438 226.453125 L 56.320312 227.609375 C 56.382812 227.988281 56.457031 228.371094 56.523438 228.757812 L 56.9375 231.054688 L 57.410156 233.335938 L 57.652344 234.480469 C 57.738281 234.859375 57.828125 235.234375 57.921875 235.617188 L 58.46875 237.886719 C 58.667969 238.636719 58.875 239.390625 59.078125 240.140625 L 59.386719 241.265625 C 59.492188 241.640625 59.609375 242.007812 59.726562 242.386719 L 60.40625 244.617188 C 60.648438 245.355469 60.90625 246.09375 61.152344 246.832031 L 61.527344 247.941406 C 61.652344 248.308594 61.796875 248.671875 61.925781 249.035156 L 62.746094 251.226562 C 63.027344 251.953125 63.332031 252.671875 63.625 253.390625 L 64.070312 254.472656 C 64.214844 254.835938 64.382812 255.1875 64.542969 255.542969 L 65.496094 257.679688 C 65.828125 258.386719 66.171875 259.082031 66.511719 259.78125 L 67.023438 260.835938 C 67.195312 261.183594 67.386719 261.523438 67.5625 261.875 L 68.652344 263.949219 C 69.027344 264.628906 69.421875 265.308594 69.808594 265.984375 L 70.386719 267 C 70.585938 267.335938 70.792969 267.664062 70.996094 267.996094 L 72.226562 269.988281 L 73.527344 271.9375 L 74.175781 272.910156 L 74.859375 273.863281 L 76.234375 275.765625 L 77.671875 277.617188 L 78.390625 278.539062 L 79.148438 279.4375 C 79.652344 280.035156 80.152344 280.636719 80.664062 281.234375 L 82.238281 282.976562 C 82.503906 283.265625 82.761719 283.558594 83.03125 283.84375 L 83.855469 284.679688 C 86.015625 286.949219 88.371094 289.035156 90.765625 291.054688 C 95.609375 295.035156 100.851562 298.492188 106.355469 301.433594 C 117.375 307.3125 129.40625 311.171875 141.699219 313.082031 C 147.851562 314.039062 154.078125 314.5 160.304688 314.429688 C 166.542969 314.371094 172.726562 313.699219 178.832031 312.820312 C 184.933594 311.933594 190.976562 310.84375 197 309.753906 L 199.257812 309.34375 L 201.535156 308.917969 C 203.046875 308.625 204.554688 308.320312 206.058594 308.015625 C 209.066406 307.394531 212.050781 306.753906 215.039062 306.164062 C 221.007812 304.976562 226.984375 303.964844 232.957031 303.757812 C 235.941406 303.660156 238.917969 303.746094 241.847656 304.144531 C 244.777344 304.542969 247.65625 305.226562 250.417969 306.230469 C 253.179688 307.234375 255.828125 308.554688 258.308594 310.15625 C 258.921875 310.5625 259.523438 310.992188 260.132812 311.402344 C 260.730469 311.847656 261.308594 312.300781 261.898438 312.75 C 263.058594 313.660156 264.140625 314.644531 265.136719 315.699219 C 266.132812 316.75 267.042969 317.871094 267.8125 319.0625 C 268.582031 320.257812 269.214844 321.519531 269.628906 322.835938 C 269.71875 323.167969 269.835938 323.492188 269.90625 323.832031 L 270.023438 324.335938 C 270.058594 324.5 270.078125 324.675781 270.101562 324.839844 C 270.125 325.011719 270.15625 325.179688 270.175781 325.351562 L 270.21875 325.878906 C 270.253906 326.230469 270.261719 326.582031 270.273438 326.9375 C 270.3125 328.347656 270.152344 329.75 269.824219 331.121094 C 269.183594 333.863281 267.792969 336.429688 266.015625 338.710938 C 264.21875 340.996094 262.035156 343.007812 259.671875 344.816406 C 257.308594 346.617188 254.761719 348.21875 252.128906 349.675781 C 249.496094 351.132812 246.777344 352.449219 244 353.675781 C 238.457031 356.117188 232.722656 358.164062 226.933594 360.101562 L 222.578125 361.554688 C 221.125 362.035156 219.679688 362.484375 218.234375 362.953125 L 217.144531 363.296875 L 216.050781 363.617188 L 213.859375 364.25 C 212.402344 364.691406 210.925781 365.054688 209.453125 365.4375 C 197.671875 368.464844 185.59375 370.378906 173.433594 371.066406 C 161.277344 371.773438 149.0625 371.332031 136.960938 369.761719 C 130.90625 369 124.875 368.046875 118.890625 366.863281 C 112.910156 365.683594 106.964844 364.261719 101.140625 362.503906 C 95.3125 360.738281 89.578125 358.625 84.164062 355.890625 C 83.488281 355.550781 82.824219 355.1875 82.152344 354.832031 C 81.492188 354.457031 80.828125 354.09375 80.183594 353.699219 C 79.53125 353.316406 78.898438 352.90625 78.257812 352.5 C 77.628906 352.074219 77 351.65625 76.398438 351.207031 C 73.957031 349.4375 71.699219 347.40625 69.820312 345.066406 C 67.9375 342.742188 66.503906 340.054688 65.773438 337.167969 C 65.402344 335.730469 65.214844 334.242188 65.183594 332.75 C 65.144531 331.257812 65.316406 329.773438 65.667969 328.328125 C 66.402344 325.441406 67.96875 322.804688 70.019531 320.613281 C 72.0625 318.410156 74.527344 316.601562 77.148438 315.078125 C 79.769531 313.550781 82.558594 312.300781 85.40625 311.226562 C 88.261719 310.160156 91.183594 309.277344 94.144531 308.53125 C 97.101562 307.785156 100.097656 307.179688 103.113281 306.699219 C 106.128906 306.21875 109.167969 305.855469 112.214844 305.660156 C 112.3125 305.652344 112.394531 305.566406 112.386719 305.46875 C 112.378906 305.367188 112.292969 305.289062 112.195312 305.296875 C 109.132812 305.457031 106.078125 305.789062 103.046875 306.238281 C 100.011719 306.6875 97 307.265625 94.007812 307.976562 C 91.023438 308.699219 88.070312 309.550781 85.171875 310.597656 C 82.289062 311.648438 79.449219 312.886719 76.761719 314.414062 C 74.078125 315.9375 71.53125 317.757812 69.382812 320.027344 C 67.238281 322.28125 65.539062 325.042969 64.734375 328.09375 C 64.339844 329.621094 64.140625 331.203125 64.167969 332.765625 C 64.179688 334.332031 64.371094 335.902344 64.738281 337.425781 C 65.484375 340.484375 66.980469 343.332031 68.917969 345.78125 C 70.847656 348.242188 73.167969 350.359375 75.660156 352.199219 C 76.277344 352.664062 76.921875 353.101562 77.554688 353.546875 C 78.203125 353.96875 78.847656 354.394531 79.511719 354.792969 C 80.164062 355.207031 80.839844 355.582031 81.511719 355.96875 C 82.1875 356.339844 82.867188 356.71875 83.554688 357.070312 C 84.238281 357.433594 84.933594 357.765625 85.621094 358.109375 C 86.324219 358.4375 87.011719 358.773438 87.71875 359.082031 C 89.121094 359.722656 90.550781 360.304688 91.976562 360.878906 C 93.410156 361.445312 94.855469 361.972656 96.308594 362.492188 C 97.761719 362.996094 99.21875 363.480469 100.691406 363.9375 C 106.566406 365.769531 112.539062 367.246094 118.550781 368.496094 C 124.570312 369.738281 130.628906 370.746094 136.714844 371.566406 C 161.066406 374.953125 186.117188 373.761719 210.027344 367.769531 C 211.519531 367.394531 213.015625 367.03125 214.492188 366.601562 L 216.71875 365.972656 L 217.832031 365.660156 L 218.933594 365.3125 C 220.40625 364.851562 221.882812 364.402344 223.339844 363.9375 L 227.707031 362.519531 C 233.542969 360.613281 239.367188 358.582031 245.046875 356.128906 C 247.882812 354.898438 250.691406 353.570312 253.421875 352.082031 C 256.152344 350.59375 258.816406 348.945312 261.335938 347.054688 C 263.84375 345.160156 266.21875 343.019531 268.230469 340.503906 C 269.234375 339.242188 270.132812 337.882812 270.890625 336.4375 C 271.652344 334.992188 272.242188 333.441406 272.636719 331.835938 C 273.03125 330.230469 273.226562 328.566406 273.195312 326.917969 C 273.183594 326.507812 273.183594 326.09375 273.140625 325.683594 L 273.09375 325.066406 C 273.066406 324.859375 273.035156 324.648438 273.007812 324.441406 C 272.976562 324.230469 272.949219 324.023438 272.90625 323.8125 L 272.773438 323.191406 C 272.691406 322.773438 272.558594 322.378906 272.445312 321.972656 C 271.953125 320.367188 271.210938 318.859375 270.328125 317.476562 C 269.449219 316.09375 268.429688 314.820312 267.328125 313.644531 C 266.226562 312.46875 265.042969 311.386719 263.808594 310.390625 C 263.179688 309.902344 262.566406 309.410156 261.929688 308.9375 C 261.277344 308.488281 260.640625 308.027344 259.980469 307.582031 C 257.328125 305.847656 254.472656 304.398438 251.488281 303.289062 C 248.503906 302.183594 245.398438 301.425781 242.265625 300.984375 C 239.128906 300.539062 235.964844 300.429688 232.835938 300.515625 C 226.558594 300.695312 220.410156 301.707031 214.371094 302.871094 C 211.347656 303.457031 208.347656 304.078125 205.355469 304.671875 C 203.859375 304.976562 202.367188 305.265625 200.871094 305.546875 L 198.628906 305.953125 L 196.371094 306.347656 C 190.34375 307.398438 184.324219 308.445312 178.308594 309.28125 C 172.289062 310.113281 166.265625 310.726562 160.261719 310.753906 C 154.246094 310.78125 148.226562 310.304688 142.285156 309.347656 C 136.339844 308.394531 130.476562 306.960938 124.773438 305.0625 C 119.070312 303.160156 113.519531 300.792969 108.238281 297.945312 C 102.960938 295.089844 97.945312 291.765625 93.332031 287.957031 C 91.054688 286.027344 88.820312 284.046875 86.765625 281.875 L 85.980469 281.074219 C 85.71875 280.804688 85.472656 280.519531 85.222656 280.25 L 83.714844 278.589844 L 82.269531 276.871094 L 81.550781 276.011719 L 80.859375 275.125 L 79.480469 273.355469 L 78.171875 271.53125 L 77.519531 270.621094 L 76.898438 269.6875 L 75.65625 267.816406 L 74.472656 265.902344 C 74.277344 265.585938 74.074219 265.269531 73.882812 264.945312 L 73.324219 263.964844 C 72.953125 263.3125 72.570312 262.667969 72.207031 262.011719 L 71.15625 260.023438 C 70.984375 259.691406 70.800781 259.363281 70.632812 259.027344 L 70.140625 258.015625 C 69.816406 257.339844 69.476562 256.667969 69.15625 255.992188 L 68.234375 253.9375 C 68.082031 253.59375 67.921875 253.253906 67.777344 252.910156 L 67.347656 251.871094 C 67.066406 251.175781 66.769531 250.488281 66.492188 249.785156 L 65.699219 247.675781 C 65.570312 247.324219 65.429688 246.972656 65.304688 246.617188 L 64.9375 245.554688 C 64.695312 244.839844 64.445312 244.132812 64.210938 243.417969 L 63.539062 241.265625 C 63.429688 240.910156 63.3125 240.546875 63.207031 240.1875 L 62.90625 239.101562 L 62.304688 236.921875 L 61.761719 234.730469 C 61.675781 234.367188 61.578125 234 61.496094 233.636719 L 61.257812 232.535156 L 60.78125 230.328125 L 60.371094 228.105469 C 60.304688 227.738281 60.230469 227.367188 60.167969 227 L 59.996094 225.886719 L 59.652344 223.652344 L 59.367188 221.414062 L 59.226562 220.292969 L 59.117188 219.167969 L 58.898438 216.921875 L 58.746094 214.671875 C 58.722656 214.292969 58.691406 213.917969 58.671875 213.542969 L 58.628906 212.417969 C 58.605469 211.667969 58.566406 210.917969 58.542969 210.160156 L 58.523438 207.902344 C 58.523438 207.527344 58.511719 207.152344 58.519531 206.777344 L 58.542969 205.652344 C 58.5625 204.902344 58.566406 204.144531 58.597656 203.394531 C 58.679688 201.890625 58.742188 200.386719 58.855469 198.890625 L 59.121094 194.375 L 59.152344 193.808594 L 59.28125 192.109375 L 59.367188 190.980469 C 59.386719 190.792969 59.390625 190.597656 59.410156 190.414062 L 59.480469 189.867188 L 59.621094 188.769531 C 59.640625 188.585938 59.675781 188.40625 59.71875 188.230469 L 59.835938 187.6875 C 59.910156 187.324219 59.988281 186.96875 60.074219 186.605469 L 60.394531 185.546875 C 60.59375 184.832031 60.894531 184.15625 61.171875 183.46875 C 61.300781 183.121094 61.472656 182.789062 61.636719 182.457031 L 62.136719 181.460938 C 63.539062 178.839844 65.324219 176.421875 67.34375 174.214844 C 69.359375 172 71.617188 169.996094 74.019531 168.167969 C 76.417969 166.339844 78.964844 164.699219 81.585938 163.183594 C 86.839844 160.164062 92.410156 157.683594 98.105469 155.5625 C 100.953125 154.503906 103.839844 153.527344 106.746094 152.621094 C 108.203125 152.179688 109.667969 151.765625 111.125 151.335938 L 112.21875 151.015625 L 112.769531 150.855469 L 113.320312 150.714844 L 115.53125 150.140625 L 117.738281 149.570312 L 118.292969 149.429688 L 118.847656 149.300781 L 119.960938 149.039062 L 122.1875 148.53125 L 123.300781 148.273438 L 123.855469 148.140625 L 124.414062 148.03125 L 128.894531 147.132812 C 129.640625 146.972656 130.390625 146.863281 131.140625 146.734375 L 133.390625 146.347656 L 134.519531 146.15625 C 134.894531 146.085938 135.269531 146.027344 135.644531 145.976562 L 137.902344 145.652344 C 139.410156 145.4375 140.910156 145.203125 142.425781 145.042969 C 143.9375 144.871094 145.445312 144.679688 146.960938 144.523438 L 151.507812 144.117188 C 157.574219 143.652344 163.664062 143.417969 169.75 143.425781 C 175.839844 143.460938 181.925781 143.75 187.992188 144.261719 L 192.539062 144.683594 L 197.074219 145.234375 C 200.101562 145.609375 203.121094 146.050781 206.132812 146.53125 C 212.148438 147.496094 218.128906 148.683594 223.992188 150.265625 C 226.925781 151.058594 229.832031 151.945312 232.691406 152.953125 C 233.972656 153.410156 235.246094 153.894531 236.507812 154.40625 C 236.308594 154.824219 236.109375 155.234375 235.898438 155.648438 C 235.234375 156.941406 234.515625 158.214844 233.734375 159.449219 C 232.957031 160.691406 232.140625 161.898438 231.253906 163.105469 C 229.554688 165.4375 227.605469 167.558594 225.445312 169.472656 C 224.914062 169.964844 224.34375 170.402344 223.789062 170.863281 C 223.511719 171.09375 223.21875 171.304688 222.929688 171.519531 L 222.0625 172.171875 L 221.164062 172.789062 C 221.101562 172.832031 221.046875 172.867188 220.984375 172.910156 C 219.949219 172.554688 218.910156 172.222656 217.863281 171.902344 C 211.980469 170.097656 205.984375 168.722656 199.953125 167.578125 C 193.921875 166.433594 187.84375 165.535156 181.742188 164.859375 C 175.636719 164.179688 169.507812 163.730469 163.367188 163.558594 C 161.3125 163.503906 159.265625 163.472656 157.210938 163.480469 C 156.519531 162.890625 155.800781 162.3125 155.0625 161.769531 C 153.753906 160.816406 152.367188 159.949219 150.914062 159.222656 C 149.464844 158.488281 147.96875 157.882812 146.441406 157.371094 C 143.390625 156.367188 140.242188 155.777344 137.085938 155.511719 C 130.757812 154.996094 124.445312 155.765625 118.410156 157.351562 C 115.390625 158.144531 112.429688 159.15625 109.554688 160.359375 C 106.683594 161.566406 103.882812 162.960938 101.214844 164.582031 C 98.542969 166.199219 95.988281 168.03125 93.675781 170.183594 C 93.105469 170.726562 92.539062 171.28125 92.003906 171.875 C 91.730469 172.167969 91.472656 172.472656 91.214844 172.773438 C 91.046875 172.984375 90.875 173.195312 90.710938 173.410156 C 90.679688 173.421875 90.65625 173.425781 90.625 173.441406 C 87.703125 174.429688 84.796875 175.5 81.949219 176.761719 C 79.105469 178.023438 76.289062 179.4375 73.671875 181.320312 C 72.367188 182.269531 71.121094 183.34375 70.011719 184.640625 C 69.871094 184.796875 69.742188 184.972656 69.613281 185.148438 C 69.484375 185.320312 69.347656 185.484375 69.226562 185.667969 C 68.984375 186.039062 68.738281 186.402344 68.53125 186.800781 C 68.300781 187.1875 68.136719 187.621094 67.957031 188.039062 L 67.734375 188.703125 C 67.65625 188.925781 67.617188 189.15625 67.5625 189.386719 C 67.371094 190.308594 67.3125 191.292969 67.433594 192.226562 C 67.546875 193.164062 67.785156 194.046875 68.097656 194.886719 C 68.757812 196.539062 69.679688 198 70.714844 199.289062 C 71.746094 200.589844 72.898438 201.75 74.085938 202.828125 C 75.277344 203.902344 76.527344 204.902344 77.800781 205.835938 C 79.082031 206.769531 80.386719 207.652344 81.722656 208.492188 C 83.050781 209.332031 84.410156 210.117188 85.777344 210.875 C 91.257812 213.890625 96.980469 216.355469 102.820312 218.464844 C 105.734375 219.523438 108.6875 220.484375 111.660156 221.351562 C 114.636719 222.226562 117.636719 223.019531 120.65625 223.714844 C 126.691406 225.109375 132.808594 226.179688 138.972656 226.871094 C 145.136719 227.558594 151.351562 227.890625 157.566406 227.75 C 163.773438 227.621094 169.929688 227.140625 176.054688 226.5 C 200.554688 223.835938 224.695312 218.65625 248.257812 211.582031 C 248.996094 211.359375 249.734375 211.144531 250.472656 210.929688 L 252.683594 210.265625 L 257.121094 208.992188 C 258.601562 208.574219 260.066406 208.105469 261.519531 207.613281 L 265.84375 206.117188 C 267.941406 205.398438 270.039062 204.714844 272.136719 204.101562 C 272.113281 204.882812 272.070312 205.65625 272.019531 206.4375 C 271.921875 207.945312 271.800781 209.464844 271.664062 210.984375 L 271.429688 213.21875 C 271.398438 213.585938 271.339844 213.960938 271.289062 214.332031 L 271.136719 215.445312 C 270.691406 218.410156 270.144531 221.363281 269.457031 224.285156 C 268.777344 227.214844 268.035156 230.128906 267.183594 233.023438 C 266.347656 235.917969 265.4375 238.796875 264.433594 241.652344 L 264.066406 242.722656 L 263.679688 243.789062 L 262.898438 245.917969 C 262.355469 247.332031 261.820312 248.746094 261.246094 250.148438 C 260.695312 251.558594 260.097656 252.953125 259.511719 254.355469 C 258.902344 255.746094 258.320312 257.144531 257.683594 258.527344 C 257.378906 259.222656 257.0625 259.910156 256.738281 260.601562 C 256.417969 261.289062 256.105469 261.980469 255.773438 262.667969 L 254.78125 264.722656 C 254.449219 265.40625 254.105469 266.082031 253.773438 266.765625 C 251.039062 272.199219 248.097656 277.542969 244.808594 282.664062 C 243.160156 285.214844 241.421875 287.71875 239.515625 290.070312 C 239.03125 290.660156 238.53125 291.269531 238.078125 291.910156 C 237.621094 292.546875 237.179688 293.207031 236.820312 293.949219 C 236.644531 294.328125 236.484375 294.714844 236.398438 295.167969 C 236.355469 295.398438 236.335938 295.644531 236.367188 295.914062 C 236.390625 296.164062 236.542969 296.511719 236.679688 296.671875 C 236.933594 297.027344 237.257812 297.351562 237.632812 297.597656 C 238.007812 297.84375 238.433594 298.011719 238.859375 298.097656 C 239.714844 298.277344 240.554688 298.191406 241.335938 298.03125 C 242.125 297.863281 242.875 297.613281 243.601562 297.328125 C 244.328125 297.046875 245.035156 296.726562 245.730469 296.417969 C 246.082031 296.265625 246.417969 296.117188 246.769531 295.976562 L 247.835938 295.550781 L 256.375 292.167969 C 259.222656 291.046875 262.058594 289.910156 264.921875 288.8125 C 267.777344 287.714844 270.636719 286.617188 273.484375 285.480469 C 276.335938 284.339844 279.171875 283.171875 281.96875 281.898438 C 284.769531 280.632812 287.527344 279.265625 290.226562 277.796875 C 295.625 274.84375 300.828125 271.472656 305.503906 267.398438 C 306.675781 266.382812 307.800781 265.308594 308.890625 264.199219 C 309.972656 263.085938 311.003906 261.917969 311.988281 260.707031 C 312.96875 259.488281 313.878906 258.214844 314.726562 256.898438 C 315.570312 255.574219 316.328125 254.191406 317.003906 252.777344 C 317.679688 251.355469 318.242188 249.871094 318.722656 248.363281 C 319.199219 246.859375 319.535156 245.300781 319.796875 243.746094 C 319.910156 242.964844 320.03125 242.183594 320.09375 241.394531 C 320.1875 240.605469 320.203125 239.820312 320.246094 239.03125 C 320.257812 238.636719 320.253906 238.246094 320.257812 237.84375 L 320.265625 237.253906 Z M 169.878906 61.757812 C 172.476562 60.230469 175.175781 58.871094 177.980469 57.757812 C 180.78125 56.636719 183.691406 55.796875 186.652344 55.136719 C 189.605469 54.476562 192.601562 53.984375 195.617188 53.667969 C 198.628906 53.347656 201.65625 53.1875 204.683594 53.234375 C 207.707031 53.292969 210.726562 53.542969 213.675781 54.132812 C 215.144531 54.429688 216.589844 54.824219 217.980469 55.332031 C 219.371094 55.851562 220.699219 56.507812 221.863281 57.363281 C 223.027344 58.210938 223.988281 59.300781 224.539062 60.574219 C 225.070312 61.855469 225.191406 63.300781 224.957031 64.726562 C 224.855469 65.441406 224.675781 66.148438 224.4375 66.84375 C 224.203125 67.539062 223.925781 68.226562 223.597656 68.890625 C 222.957031 70.234375 222.171875 71.519531 221.308594 72.75 C 220.449219 73.980469 219.507812 75.160156 218.5 76.289062 C 218.246094 76.570312 217.992188 76.847656 217.734375 77.117188 C 217.484375 77.386719 217.199219 77.640625 216.933594 77.898438 L 216.527344 78.285156 L 216.105469 78.65625 L 215.679688 79.023438 C 215.539062 79.148438 215.398438 79.265625 215.242188 79.382812 C 214.082031 80.328125 212.820312 81.148438 211.507812 81.878906 C 210.199219 82.605469 208.832031 83.25 207.421875 83.773438 C 204.597656 84.828125 201.632812 85.503906 198.625 85.816406 C 197.125 85.976562 195.609375 86.070312 194.097656 86.074219 C 192.582031 86.074219 191.0625 86.007812 189.554688 85.871094 C 183.519531 85.320312 177.550781 83.675781 172.214844 80.773438 C 167.035156 77.980469 162.402344 74.195312 158.457031 69.820312 C 162.039062 66.894531 165.835938 64.144531 169.878906 61.757812 Z M 90.019531 178.625 C 90.230469 177.972656 90.527344 177.339844 90.875 176.726562 C 91.222656 176.101562 91.632812 175.511719 92.078125 174.933594 C 92.089844 174.917969 92.101562 174.902344 92.113281 174.886719 C 93.246094 174.492188 94.382812 174.117188 95.535156 173.765625 C 96.984375 173.308594 98.445312 172.890625 99.914062 172.484375 C 102.851562 171.679688 105.808594 170.949219 108.78125 170.296875 C 114.730469 168.984375 120.75 167.941406 126.796875 167.121094 C 132.84375 166.296875 138.917969 165.707031 145.007812 165.335938 C 147.816406 165.164062 150.621094 165.046875 153.433594 164.980469 C 155.511719 166.652344 157.375 168.640625 159.289062 170.726562 C 161.351562 172.976562 163.535156 175.320312 166.082031 177.328125 C 167.351562 178.335938 168.691406 179.265625 170.101562 180.082031 C 171.507812 180.902344 172.972656 181.617188 174.460938 182.242188 C 175.214844 182.53125 175.964844 182.847656 176.726562 183.09375 C 177.109375 183.222656 177.484375 183.363281 177.871094 183.472656 L 179.023438 183.816406 C 179.402344 183.941406 179.796875 184.035156 180.183594 184.132812 C 180.570312 184.230469 180.960938 184.335938 181.347656 184.425781 L 182.523438 184.679688 L 183.105469 184.800781 L 183.699219 184.90625 C 186.84375 185.472656 190.035156 185.769531 193.222656 185.761719 C 196.410156 185.761719 199.597656 185.515625 202.742188 184.992188 C 205.886719 184.464844 208.992188 183.6875 212.019531 182.648438 C 215.046875 181.617188 217.980469 180.285156 220.78125 178.710938 C 221.488281 178.332031 222.164062 177.894531 222.855469 177.476562 C 223.199219 177.273438 223.53125 177.039062 223.863281 176.816406 L 224.867188 176.140625 L 225.296875 175.828125 C 225.542969 175.929688 225.789062 176.035156 226.035156 176.140625 C 227.417969 176.742188 228.785156 177.394531 230.082031 178.144531 C 231.375 178.894531 232.632812 179.726562 233.671875 180.742188 C 234.1875 181.246094 234.644531 181.800781 234.96875 182.398438 C 235.0625 182.542969 235.109375 182.699219 235.183594 182.851562 C 235.238281 183.007812 235.289062 183.160156 235.332031 183.320312 C 235.355469 183.480469 235.40625 183.632812 235.40625 183.792969 C 235.425781 183.953125 235.417969 184.105469 235.40625 184.265625 C 235.363281 184.902344 235.078125 185.523438 234.691406 186.09375 C 234.304688 186.667969 233.800781 187.195312 233.257812 187.675781 C 232.164062 188.640625 230.890625 189.441406 229.578125 190.167969 C 228.261719 190.886719 226.890625 191.519531 225.492188 192.105469 C 222.699219 193.273438 219.808594 194.234375 216.886719 195.082031 C 213.964844 195.929688 211.003906 196.664062 208.019531 197.308594 C 202.058594 198.601562 196.027344 199.574219 189.96875 200.300781 C 183.90625 201.023438 177.816406 201.472656 171.71875 201.671875 C 159.523438 202.089844 147.304688 201.199219 135.226562 199.492188 C 129.183594 198.625 123.179688 197.542969 117.253906 196.128906 C 114.292969 195.421875 111.351562 194.632812 108.460938 193.710938 C 105.570312 192.792969 102.714844 191.753906 99.984375 190.492188 C 98.617188 189.867188 97.28125 189.175781 96.007812 188.40625 C 95.375 188.019531 94.753906 187.621094 94.160156 187.183594 C 93.566406 186.753906 93.003906 186.292969 92.476562 185.800781 C 91.941406 185.3125 91.472656 184.785156 91.054688 184.222656 C 90.644531 183.664062 90.292969 183.074219 90.0625 182.457031 C 89.832031 181.84375 89.714844 181.203125 89.714844 180.558594 C 89.6875 179.9375 89.8125 179.277344 90.019531 178.625 Z M 181.5625 166.179688 C 187.636719 166.832031 193.675781 167.699219 199.683594 168.8125 C 205.683594 169.9375 211.636719 171.296875 217.464844 173.070312 C 218.183594 173.292969 218.898438 173.511719 219.605469 173.746094 C 219.195312 174.003906 218.78125 174.265625 218.355469 174.492188 C 215.832031 175.9375 213.183594 177.167969 210.425781 178.144531 C 207.667969 179.125 204.828125 179.875 201.941406 180.398438 C 196.167969 181.425781 190.207031 181.546875 184.429688 180.613281 C 181.542969 180.164062 178.707031 179.386719 176.011719 178.367188 C 174.671875 177.832031 173.367188 177.234375 172.113281 176.539062 C 170.855469 175.84375 169.664062 175.050781 168.511719 174.183594 C 167.363281 173.308594 166.265625 172.355469 165.195312 171.339844 C 164.125 170.328125 163.078125 169.242188 162.015625 168.144531 C 160.976562 167.066406 159.917969 165.972656 158.796875 164.90625 C 160.296875 164.90625 161.800781 164.925781 163.300781 164.957031 C 169.40625 165.105469 175.496094 165.535156 181.5625 166.179688 Z M 95.085938 171.722656 C 96.1875 170.734375 97.355469 169.804688 98.566406 168.9375 C 99.785156 168.074219 101.054688 167.269531 102.34375 166.519531 C 107.539062 163.515625 113.203125 161.300781 119.027344 159.898438 C 124.847656 158.503906 130.882812 157.925781 136.765625 158.550781 C 139.699219 158.867188 142.589844 159.492188 145.335938 160.472656 C 146.699219 160.96875 148.03125 161.546875 149.296875 162.222656 C 150.046875 162.625 150.769531 163.0625 151.46875 163.535156 C 149.285156 163.597656 147.101562 163.683594 144.917969 163.804688 C 138.78125 164.144531 132.667969 164.710938 126.574219 165.492188 C 120.484375 166.277344 114.417969 167.289062 108.40625 168.574219 C 103.792969 169.558594 99.207031 170.714844 94.679688 172.09375 C 94.8125 171.96875 94.949219 171.847656 95.085938 171.722656 Z M 264.433594 201.941406 C 262.96875 202.414062 261.507812 202.890625 260.058594 203.382812 C 258.613281 203.875 257.179688 204.390625 255.746094 204.902344 L 251.445312 206.445312 C 250.726562 206.699219 250.007812 206.949219 249.285156 207.183594 C 248.5625 207.410156 247.828125 207.632812 247.101562 207.855469 C 235.449219 211.402344 223.628906 214.429688 211.699219 216.910156 C 199.761719 219.359375 187.722656 221.316406 175.621094 222.558594 C 169.570312 223.167969 163.503906 223.617188 157.46875 223.71875 C 151.4375 223.835938 145.402344 223.5 139.402344 222.808594 C 133.40625 222.125 127.4375 221.082031 121.546875 219.726562 C 115.660156 218.363281 109.839844 216.683594 104.160156 214.652344 C 98.480469 212.621094 92.914062 210.253906 87.644531 207.398438 C 86.328125 206.683594 85.039062 205.941406 83.765625 205.160156 C 82.496094 204.378906 81.257812 203.554688 80.058594 202.691406 C 77.671875 200.96875 75.421875 199.050781 73.628906 196.898438 C 72.730469 195.828125 71.980469 194.675781 71.464844 193.507812 C 71.21875 192.921875 71.039062 192.332031 70.933594 191.746094 C 70.832031 191.164062 70.84375 190.597656 70.921875 190.019531 C 70.953125 189.878906 70.953125 189.730469 71.003906 189.589844 L 71.121094 189.152344 C 71.230469 188.863281 71.316406 188.574219 71.464844 188.289062 C 71.585938 188 71.753906 187.71875 71.914062 187.433594 C 71.992188 187.292969 72.09375 187.160156 72.183594 187.015625 C 72.277344 186.875 72.363281 186.734375 72.472656 186.605469 C 73.28125 185.511719 74.289062 184.496094 75.394531 183.566406 C 77.628906 181.707031 80.207031 180.140625 82.882812 178.78125 C 84.851562 177.777344 86.890625 176.878906 88.964844 176.066406 C 88.636719 176.695312 88.355469 177.351562 88.144531 178.046875 C 87.890625 178.851562 87.738281 179.722656 87.75 180.605469 C 87.757812 181.492188 87.941406 182.382812 88.261719 183.191406 C 88.574219 184.003906 89.03125 184.734375 89.535156 185.398438 C 90.046875 186.058594 90.605469 186.667969 91.207031 187.207031 C 91.8125 187.75 92.433594 188.253906 93.085938 188.707031 C 93.730469 189.175781 94.402344 189.59375 95.078125 190 C 96.4375 190.800781 97.835938 191.5 99.25 192.140625 C 102.09375 193.414062 105.007812 194.449219 107.957031 195.367188 C 110.902344 196.277344 113.886719 197.058594 116.882812 197.757812 C 122.878906 199.148438 128.9375 200.207031 135.023438 201.042969 C 141.109375 201.875 147.222656 202.476562 153.351562 202.839844 C 159.480469 203.210938 165.640625 203.28125 171.773438 203.0625 C 177.914062 202.839844 184.035156 202.347656 190.132812 201.609375 C 196.230469 200.863281 202.296875 199.875 208.296875 198.558594 C 211.300781 197.898438 214.285156 197.15625 217.238281 196.289062 C 220.191406 195.425781 223.117188 194.453125 225.972656 193.261719 C 227.402344 192.664062 228.808594 192.011719 230.175781 191.261719 C 231.542969 190.503906 232.878906 189.667969 234.078125 188.609375 C 234.675781 188.074219 235.238281 187.492188 235.714844 186.796875 C 236.179688 186.105469 236.5625 185.292969 236.628906 184.390625 C 236.65625 184.167969 236.65625 183.941406 236.628906 183.71875 C 236.625 183.492188 236.570312 183.277344 236.53125 183.0625 C 236.476562 182.847656 236.410156 182.636719 236.335938 182.433594 C 236.242188 182.238281 236.175781 182.027344 236.058594 181.847656 C 235.652344 181.097656 235.117188 180.464844 234.539062 179.898438 C 233.960938 179.339844 233.339844 178.835938 232.691406 178.378906 C 232.046875 177.929688 231.386719 177.5 230.707031 177.117188 C 229.351562 176.335938 227.953125 175.667969 226.535156 175.046875 C 226.507812 175.03125 226.476562 175.019531 226.453125 175.007812 C 226.578125 174.914062 226.699219 174.824219 226.816406 174.726562 C 227.445312 174.214844 228.085938 173.722656 228.679688 173.175781 C 231.113281 171.046875 233.34375 168.648438 235.253906 166.027344 C 236.179688 164.765625 237.09375 163.4375 237.933594 162.089844 C 238.785156 160.734375 239.578125 159.34375 240.308594 157.917969 C 240.566406 157.417969 240.8125 156.910156 241.054688 156.398438 C 241.058594 156.398438 241.058594 156.40625 241.066406 156.40625 C 243.804688 157.695312 246.457031 159.140625 249.003906 160.765625 C 251.542969 162.390625 253.980469 164.175781 256.234375 166.175781 C 258.484375 168.167969 260.566406 170.351562 262.421875 172.707031 C 264.28125 175.0625 265.910156 177.597656 267.285156 180.257812 C 270.046875 185.570312 271.558594 191.464844 272.003906 197.433594 C 272.058594 198.183594 272.09375 198.925781 272.125 199.679688 C 269.511719 200.347656 266.957031 201.128906 264.433594 201.941406 Z M 317.742188 241.199219 C 317.710938 241.9375 317.613281 242.675781 317.535156 243.40625 C 317.324219 244.871094 317.058594 246.328125 316.648438 247.75 C 316.234375 249.171875 315.753906 250.574219 315.152344 251.933594 C 314.550781 253.285156 313.867188 254.613281 313.097656 255.894531 C 312.324219 257.167969 311.484375 258.410156 310.574219 259.605469 C 309.65625 260.792969 308.691406 261.941406 307.664062 263.042969 C 306.632812 264.136719 305.566406 265.207031 304.445312 266.222656 C 302.214844 268.265625 299.824219 270.136719 297.339844 271.882812 C 294.855469 273.632812 292.269531 275.238281 289.617188 276.738281 C 284.328125 279.757812 278.757812 282.269531 273.097656 284.574219 C 270.269531 285.738281 267.417969 286.84375 264.570312 287.972656 C 261.714844 289.085938 258.878906 290.242188 256.035156 291.359375 L 247.503906 294.738281 L 246.433594 295.15625 C 246.070312 295.292969 245.707031 295.445312 245.355469 295.601562 C 244.648438 295.902344 243.957031 296.207031 243.25 296.46875 C 242.550781 296.730469 241.835938 296.953125 241.128906 297.09375 C 240.421875 297.230469 239.695312 297.273438 239.054688 297.121094 C 238.410156 296.972656 237.875 296.609375 237.515625 296.054688 C 237.238281 295.765625 237.472656 295.046875 237.792969 294.4375 C 238.121094 293.808594 238.542969 293.199219 239 292.609375 C 239.453125 292.019531 239.941406 291.460938 240.453125 290.882812 C 242.488281 288.542969 244.363281 286.09375 246.160156 283.589844 C 249.75 278.582031 253.039062 273.367188 256.109375 268.027344 C 257.648438 265.355469 259.113281 262.644531 260.523438 259.894531 C 261.230469 258.523438 261.90625 257.136719 262.582031 255.746094 C 263.234375 254.351562 263.90625 252.953125 264.519531 251.539062 C 264.828125 250.832031 265.15625 250.128906 265.449219 249.417969 L 266.347656 247.277344 C 266.644531 246.5625 266.925781 245.84375 267.210938 245.121094 L 267.632812 244.046875 L 268.039062 242.957031 C 269.140625 240.066406 270.125 237.117188 271.023438 234.148438 C 271.929688 231.175781 272.667969 228.148438 273.289062 225.097656 C 273.910156 222.046875 274.335938 218.945312 274.605469 215.832031 L 274.699219 214.664062 C 274.730469 214.277344 274.765625 213.890625 274.773438 213.496094 L 274.863281 211.152344 C 274.902344 209.613281 274.933594 208.074219 274.9375 206.523438 C 274.9375 205.460938 274.925781 204.390625 274.894531 203.324219 C 277.621094 202.625 280.359375 202.089844 283.089844 201.867188 C 285.980469 201.632812 288.867188 201.746094 291.648438 202.339844 C 294.4375 202.921875 297.105469 204.027344 299.585938 205.484375 C 300.824219 206.222656 302.003906 207.066406 303.140625 207.972656 L 303.980469 208.664062 C 304.257812 208.90625 304.519531 209.152344 304.792969 209.398438 C 304.925781 209.519531 305.0625 209.636719 305.199219 209.765625 L 305.589844 210.148438 C 305.851562 210.40625 306.121094 210.652344 306.367188 210.921875 C 307.386719 211.976562 308.335938 213.101562 309.238281 214.257812 C 310.132812 215.425781 310.960938 216.652344 311.738281 217.90625 C 314.796875 222.957031 316.839844 228.667969 317.550781 234.546875 L 317.675781 235.65625 L 317.75 236.761719 L 317.785156 237.316406 L 317.796875 237.871094 C 317.804688 238.238281 317.824219 238.609375 317.816406 238.976562 C 317.804688 239.722656 317.8125 240.464844 317.742188 241.199219 Z M 317.742188 241.199219 " fill-opacity="1" fill-rule="nonzero"/></g></svg>