<svg xmlns="http://www.w3.org/2000/svg" xmlns:xlink="http://www.w3.org/1999/xlink" width="500" zoomAndPan="magnify" viewBox="0 0 375 374.999991" height="500" preserveAspectRatio="xMidYMid meet" version="1.0"><defs><g/><clipPath id="id1"><path d="M 104.363281 104.363281 L 270.863281 104.363281 L 270.863281 270.863281 L 104.363281 270.863281 Z M 104.363281 104.363281 " clip-rule="nonzero"/></clipPath><clipPath id="id2"><path d="M 130.671875 130.671875 L 244.671875 130.671875 L 244.671875 244.671875 L 130.671875 244.671875 Z M 130.671875 130.671875 " clip-rule="nonzero"/></clipPath><clipPath id="id3"><path d="M 117.839844 150.664062 L 257.339844 150.664062 L 257.339844 233.914062 L 117.839844 233.914062 Z M 117.839844 150.664062 " clip-rule="nonzero"/></clipPath><clipPath id="id4"><path d="M 157 153.078125 L 218 153.078125 L 218 219.828125 L 157 219.828125 Z M 157 153.078125 " clip-rule="nonzero"/></clipPath></defs><g clip-path="url(#id1)"><path fill="#59371c" d="M 187.617188 104.363281 C 141.667969 104.363281 104.363281 141.667969 104.363281 187.617188 C 104.363281 233.5625 141.667969 270.867188 187.617188 270.867188 C 233.566406 270.867188 270.867188 233.5625 270.867188 187.617188 C 270.867188 141.667969 233.566406 104.363281 187.617188 104.363281 Z M 187.617188 104.902344 C 233.269531 104.902344 270.328125 141.964844 270.328125 187.617188 C 270.328125 233.265625 233.269531 270.332031 187.617188 270.332031 C 141.964844 270.332031 104.902344 233.265625 104.902344 187.617188 C 104.902344 141.964844 141.964844 104.902344 187.617188 104.902344 Z M 187.617188 104.902344 " fill-opacity="1" fill-rule="evenodd"/></g><g clip-path="url(#id2)"><path fill="#59371c" d="M 187.675781 130.671875 C 156.214844 130.671875 130.671875 156.214844 130.671875 187.675781 C 130.671875 219.132812 156.214844 244.675781 187.675781 244.675781 C 219.132812 244.675781 244.675781 219.132812 244.675781 187.675781 C 244.675781 156.214844 219.132812 130.671875 187.675781 130.671875 Z M 187.675781 131.042969 C 218.929688 131.042969 244.308594 156.417969 244.308594 187.675781 C 244.308594 218.929688 218.929688 244.308594 187.675781 244.308594 C 156.417969 244.308594 131.042969 218.929688 131.042969 187.675781 C 131.042969 156.417969 156.417969 131.042969 187.675781 131.042969 Z M 187.675781 131.042969 " fill-opacity="1" fill-rule="evenodd"/></g><g clip-path="url(#id3)"><path fill="#59371c" d="M 187.589844 116.34375 C 149.09375 116.34375 117.839844 147.597656 117.839844 186.09375 C 117.839844 224.589844 149.09375 255.84375 187.589844 255.84375 C 226.089844 255.84375 257.34375 224.589844 257.34375 186.09375 C 257.34375 147.597656 226.089844 116.34375 187.589844 116.34375 Z M 187.589844 116.792969 C 225.839844 116.792969 256.890625 147.84375 256.890625 186.09375 C 256.890625 224.339844 225.839844 255.394531 187.589844 255.394531 C 149.34375 255.394531 118.289062 224.339844 118.289062 186.09375 C 118.289062 147.84375 149.34375 116.792969 187.589844 116.792969 Z M 187.589844 116.792969 " fill-opacity="1" fill-rule="evenodd"/></g><path fill="#59371c" d="M 185.007812 183.082031 C 184.992188 183.082031 184.992188 183.105469 185.007812 183.105469 C 185.019531 183.105469 185.019531 183.082031 185.007812 183.082031 " fill-opacity="1" fill-rule="nonzero"/><g clip-path="url(#id4)"><path fill="#59371c" d="M 215.792969 210.851562 L 215.445312 210.40625 C 215.394531 210.347656 215.328125 210.339844 215.265625 210.363281 C 214.203125 209.703125 212.46875 209.960938 211.359375 209.941406 C 207.902344 209.886719 205.914062 209.597656 196.558594 209.019531 C 197.128906 208.207031 197.703125 207.269531 198.257812 206.1875 C 199.019531 206.550781 200.140625 206.40625 201.105469 206.207031 C 204.222656 207.015625 205.410156 208.308594 206.609375 209.675781 L 206.71875 209.582031 C 205.507812 207.996094 204.53125 206.949219 202.039062 205.992188 C 203.863281 205.5625 205.679688 204.828125 206.894531 203.402344 C 212.285156 204.589844 220.117188 207.453125 215.792969 210.851562 Z M 214.269531 212.605469 C 213.746094 212.777344 213.183594 212.722656 212.644531 212.640625 C 212.613281 212.621094 212.578125 212.597656 212.546875 212.574219 C 212.511719 212.585938 212.476562 212.601562 212.441406 212.613281 C 197.191406 210.59375 207.285156 211.566406 196.734375 210.683594 C 183.351562 209.566406 186.925781 213.542969 179.074219 213.476562 C 176.949219 213.457031 174.847656 213.109375 172.835938 212.421875 C 171.84375 212.078125 170.875 211.671875 169.945312 211.175781 C 169.609375 211 168.910156 210.683594 168.78125 210.3125 C 168.488281 209.480469 169.5625 209.136719 170.113281 209.15625 C 170.179688 209.15625 170.222656 209.105469 170.230469 209.054688 C 172.128906 208.773438 174.085938 208.925781 175.972656 209.242188 C 177.140625 209.441406 178.300781 209.703125 179.441406 210.027344 C 180.523438 210.335938 181.675781 210.953125 182.789062 211.039062 C 183.007812 211.058594 183.144531 210.734375 182.972656 210.59375 C 181.925781 209.722656 178.257812 208.902344 177.394531 208.730469 C 176.261719 207.171875 175.097656 205.105469 174.136719 202.386719 C 174.074219 202.203125 174.007812 202.019531 173.945312 201.824219 C 172.542969 197.613281 171.632812 191.925781 172 184.308594 C 175.964844 186.71875 191.867188 187.445312 199.375 184.953125 C 200.039062 184.726562 200.585938 184.484375 200.996094 184.199219 C 200.792969 184.339844 201.078125 186.738281 201.078125 187.082031 C 201.089844 188.101562 201.074219 189.121094 201.03125 190.140625 C 200.945312 192.191406 200.753906 194.238281 200.414062 196.265625 C 199.789062 200.003906 198.679688 203.789062 196.714844 207.042969 C 196.570312 207.28125 195.703125 208.96875 195.4375 208.957031 C 190.5 208.695312 186.355469 208.59375 183.703125 210.925781 C 183.597656 211.015625 183.734375 211.160156 183.84375 211.105469 C 187.640625 209.296875 191.800781 209.390625 195.929688 209.714844 L 196.003906 209.773438 C 196.015625 209.757812 196.03125 209.738281 196.039062 209.722656 C 197.554688 209.839844 199.066406 209.988281 200.550781 210.078125 C 203.554688 210.261719 206.5625 210.445312 209.566406 210.609375 C 213.804688 210.851562 214.378906 210.289062 215.34375 211.496094 C 215.246094 212.003906 214.800781 212.425781 214.269531 212.605469 Z M 186.652344 212.316406 C 188.769531 211.34375 191.234375 211.285156 193.550781 211.394531 C 193.128906 211.527344 190.832031 212.511719 186.652344 212.316406 Z M 168.550781 208.863281 C 168.808594 208.386719 169.277344 207.929688 169.875 207.582031 C 170.46875 207.226562 171.230469 206.933594 172.210938 206.675781 C 173.011719 206.476562 173.855469 206.296875 174.71875 206.144531 L 174.726562 206.140625 C 175.171875 207.015625 175.628906 207.804688 176.089844 208.5 C 175.960938 208.480469 175.835938 208.460938 175.707031 208.445312 C 173.644531 208.175781 171.363281 208.101562 169.402344 208.921875 C 168.960938 208.984375 168.53125 209.175781 168.292969 209.519531 C 168.34375 209.316406 168.421875 209.097656 168.550781 208.863281 Z M 199.542969 215.308594 C 181.179688 217.21875 158.503906 214.183594 158.179688 208.929688 C 158.179688 208.925781 158.179688 208.886719 158.175781 208.914062 C 158.136719 205.222656 169.429688 203.0625 173.191406 202.519531 C 173.582031 203.652344 174.011719 204.671875 174.457031 205.601562 C 173.640625 205.785156 172.839844 205.988281 172.082031 206.210938 C 171.078125 206.523438 170.296875 206.871094 169.6875 207.28125 C 169.0625 207.691406 168.582031 208.214844 168.332031 208.75 C 168.097656 209.238281 168.054688 209.664062 168.046875 209.984375 C 168.042969 210.109375 168.050781 210.207031 168.054688 210.277344 L 168.066406 210.421875 L 168.136719 210.417969 C 168.390625 211.394531 169.917969 212.050781 170.644531 212.417969 C 174.113281 214.183594 178.355469 214.867188 182.203125 214.214844 C 183.285156 214.035156 184.226562 213.5625 185.164062 213.070312 C 189.734375 213.632812 194.988281 212.410156 195.121094 211.488281 C 197.074219 211.609375 199.050781 211.714844 200.992188 211.914062 C 203.738281 212.195312 204.480469 212.515625 210.535156 213.261719 C 207.148438 214.292969 203.050781 214.9375 199.542969 215.308594 Z M 185.628906 218.035156 C 184.425781 218.015625 183.199219 217.972656 181.953125 217.90625 C 178.683594 217.722656 171.207031 217.054688 168.472656 215.253906 C 179.207031 217.605469 195.160156 217.800781 206.726562 215.265625 C 202.765625 217.839844 190.390625 218.09375 185.628906 218.035156 Z M 172.085938 182.757812 C 173.222656 181.898438 175.242188 181.472656 176.707031 181.203125 C 179.921875 180.605469 184.402344 180.433594 184.636719 180.453125 C 184.554688 181.175781 184.648438 181.890625 185.042969 182.59375 C 181.082031 182.707031 178.082031 183.261719 174.757812 184.160156 C 178.179688 183.472656 181.125 183.035156 185.269531 182.949219 C 185.273438 182.957031 185.277344 182.964844 185.285156 182.972656 C 185.476562 183.234375 185.957031 183.277344 186.089844 182.941406 C 190.234375 182.945312 193.089844 183.304688 196.683594 183.957031 C 193.183594 183.078125 190.1875 182.601562 186.183594 182.582031 C 186.347656 181.828125 186.597656 181.109375 186.90625 180.421875 C 192.800781 180.421875 199.40625 181.460938 200.742188 182.753906 C 200.964844 182.984375 200.917969 183.039062 200.921875 183.050781 C 200.917969 183.066406 200.917969 183.082031 200.914062 183.101562 C 200.910156 183.121094 200.90625 183.160156 200.898438 183.148438 L 200.898438 183.144531 C 200.890625 183.144531 200.839844 183.242188 200.726562 183.339844 C 199.363281 184.550781 193.941406 185.011719 192.222656 185.136719 C 190.007812 185.273438 187.988281 185.367188 184.972656 185.335938 C 182.675781 185.308594 180.824219 185.199219 178.960938 185.003906 C 180.847656 184.425781 182.625 184.265625 183.957031 184.164062 C 185.550781 184.050781 186.535156 183.996094 186.53125 183.917969 C 186.53125 183.863281 185.550781 183.769531 183.933594 183.742188 C 183.125 183.734375 182.152344 183.753906 181.070312 183.875 C 179.882812 184.007812 177.367188 184.824219 177.367188 184.824219 C 176.242188 184.679688 172.808594 184.15625 172.058594 183.292969 C 172.074219 183.046875 172.082031 182.878906 172.085938 182.757812 Z M 187.332031 174.859375 C 187.371094 174.363281 187.34375 173.894531 187.265625 173.453125 C 187.277344 173.4375 187.285156 173.417969 187.300781 173.398438 C 187.359375 173.3125 187.433594 173.171875 187.519531 172.992188 C 187.691406 172.628906 187.855469 172.050781 187.871094 171.320312 C 187.886719 170.59375 187.742188 169.726562 187.414062 168.820312 C 187.089844 167.914062 186.585938 166.992188 186.09375 166.027344 C 185.601562 165.066406 185.175781 164.121094 185 163.21875 C 184.738281 161.855469 184.957031 160.273438 185.878906 159.351562 C 185.953125 159.28125 186.015625 159.222656 186.070312 159.167969 C 186.128906 159.117188 186.183594 159.082031 186.226562 159.050781 C 186.308594 158.988281 186.351562 158.953125 186.351562 158.953125 C 186.351562 158.953125 186.304688 158.984375 186.214844 159.039062 C 186.171875 159.066406 186.113281 159.097656 186.050781 159.144531 C 185.992188 159.191406 185.921875 159.246094 185.839844 159.308594 C 184.839844 160.15625 184.464844 161.765625 184.699219 163.269531 C 184.851562 164.234375 185.273438 165.21875 185.769531 166.195312 C 186.269531 167.167969 186.785156 168.066406 187.128906 168.929688 C 187.476562 169.792969 187.660156 170.621094 187.691406 171.324219 C 187.722656 172.027344 187.605469 172.597656 187.46875 172.96875 C 187.398438 173.15625 187.335938 173.296875 187.285156 173.390625 C 187.277344 173.40625 187.269531 173.421875 187.261719 173.4375 C 186.902344 171.429688 185.46875 169.894531 184.199219 168.253906 C 180.03125 162.867188 182.417969 158.511719 187.925781 154.472656 C 186.488281 160.4375 194.347656 163.03125 190.644531 172.828125 C 190.625 172.878906 190.632812 172.925781 190.648438 172.964844 C 189.0625 175.875 186.640625 178.230469 185.578125 181.375 C 185.175781 179.28125 187.164062 176.90625 187.332031 174.859375 Z M 201.972656 190.101562 C 202.480469 189.3125 203.328125 188.78125 204.328125 188.988281 C 205.4375 189.214844 205.945312 190.214844 206.183594 191.226562 C 207.171875 195.429688 205.800781 200.355469 201.703125 201.898438 C 201.171875 201.828125 200.632812 201.765625 200.082031 201.703125 C 201.0625 198.621094 201.785156 194.800781 201.972656 190.101562 Z M 199.882812 202.316406 C 199.894531 202.285156 199.90625 202.253906 199.914062 202.21875 C 200.039062 202.238281 200.164062 202.25 200.289062 202.269531 C 200.15625 202.289062 200.019531 202.300781 199.882812 202.316406 Z M 208.929688 188.71875 C 210.46875 193.542969 208.757812 206.613281 198.746094 205.175781 C 198.851562 204.949219 198.953125 204.714844 199.054688 204.476562 C 202.199219 204.785156 205.09375 202.984375 206.234375 200.875 C 206.457031 200.46875 206.535156 200.226562 206.507812 200.214844 C 206.476562 200.195312 206.332031 200.40625 206.0625 200.761719 C 204.578125 202.707031 202.003906 204.015625 199.355469 203.746094 C 199.445312 203.519531 199.535156 203.292969 199.597656 203.117188 C 204.234375 203.515625 207.105469 198.449219 207.28125 194.339844 C 207.363281 192.390625 207.277344 189.40625 205.253906 188.414062 C 204.070312 187.832031 202.773438 188.148438 202.007812 189.003906 C 202.007812 188.972656 202.007812 188.925781 202.007812 188.921875 C 202.925781 188.0625 204.308594 187.710938 205.640625 188.195312 C 206.132812 188.375 206.496094 188.617188 206.738281 188.792969 C 206.976562 188.972656 207.105469 189.082031 207.136719 189.058594 C 207.15625 189.042969 207.082031 188.882812 206.878906 188.636719 C 205.800781 187.371094 203.746094 186.941406 202.023438 187.976562 C 202.023438 187.640625 202.023438 187.304688 202.019531 186.960938 C 203.984375 184.621094 207.714844 184.886719 208.929688 188.71875 Z M 217.816406 208.449219 C 217.269531 205.28125 210.414062 203.527344 207.316406 202.847656 C 208.234375 201.53125 209.761719 198.226562 210.195312 194.972656 C 211.628906 184.199219 204.738281 183.082031 202.003906 185.96875 C 201.996094 185.734375 201.972656 184.730469 201.890625 183.375 C 201.871094 183.027344 201.851562 182.695312 201.855469 182.621094 C 201.855469 182.636719 201.851562 182.648438 201.851562 182.652344 L 201.636719 182.609375 C 201.5625 182.460938 201.4375 182.300781 201.277344 182.15625 C 199.054688 180.203125 189.90625 179.992188 187.128906 179.949219 C 188.269531 177.617188 189.96875 175.546875 190.941406 173.117188 C 190.996094 173.101562 191.042969 173.066406 191.070312 173.007812 C 195.71875 162.96875 185.835938 159.683594 189 154.125 C 189.199219 153.78125 188.8125 153.082031 188.453125 153.339844 C 186.097656 155.035156 183.648438 156.816406 182.1875 159.398438 C 180.777344 161.894531 180.742188 164.285156 182.136719 166.824219 C 183.628906 169.542969 186.925781 171.734375 186.34375 175.191406 C 186.082031 176.726562 185.058594 178.347656 184.71875 179.953125 C 182.28125 179.972656 172.105469 180.359375 171.175781 182.648438 L 171.152344 182.652344 C 171.148438 182.648438 171.148438 182.636719 171.148438 182.621094 C 171.148438 182.640625 171.148438 182.683594 171.144531 182.738281 C 171.070312 182.914062 171.011719 183.117188 171.054688 183.269531 C 170.617188 188.101562 170.996094 195.828125 173 201.953125 C 169.445312 202.445312 165.128906 203.28125 161.816406 204.65625 C 155.382812 207.371094 154.871094 211.761719 167.023438 214.914062 C 168.238281 217.796875 178.699219 218.800781 181.886719 219.015625 C 194.339844 219.832031 206.835938 217.945312 208.1875 214.921875 C 208.1875 214.921875 208.191406 214.921875 208.191406 214.921875 C 209.902344 214.496094 211.429688 214.019531 212.746094 213.496094 C 214.078125 213.574219 215.359375 213.242188 215.757812 211.957031 C 217.027344 211.085938 218.082031 209.953125 217.816406 208.449219 " fill-opacity="1" fill-rule="nonzero"/></g><path fill="#59371c" d="M 180.359375 165.089844 C 180.878906 168.753906 184.945312 172.09375 183.785156 175.355469 C 183.359375 172.875 179.859375 172.347656 179.878906 167.632812 C 179.882812 166.753906 180.15625 165.929688 180.359375 165.089844 Z M 181.117188 172.804688 C 182.390625 174.09375 183.277344 174.96875 183.292969 176.863281 C 183.292969 176.609375 183.976562 176.214844 184.125 175.972656 C 184.402344 175.523438 184.503906 174.886719 184.554688 174.371094 C 184.660156 173.292969 184.441406 172.195312 184.050781 171.191406 C 183.359375 169.394531 181.996094 168.347656 181.394531 166.5 C 181.222656 165.972656 180.25 164.488281 180.4375 163.953125 C 180.050781 165.0625 179.6875 166.214844 179.449219 167.367188 C 179.074219 169.179688 179.742188 171.410156 181.117188 172.804688 " fill-opacity="1" fill-rule="nonzero"/><path fill="#59371c" d="M 179.351562 212.355469 C 178.847656 212.335938 178.246094 212.28125 177.582031 212.207031 C 176.914062 212.121094 176.191406 212.003906 175.429688 211.851562 C 174.675781 211.691406 173.960938 211.507812 173.320312 211.320312 C 172.683594 211.117188 172.109375 210.925781 171.644531 210.734375 C 170.699219 210.367188 170.144531 210.0625 170.09375 210.140625 C 170.046875 210.203125 170.535156 210.648438 171.464844 211.128906 C 171.925781 211.378906 172.5 211.617188 173.148438 211.851562 C 173.800781 212.078125 174.53125 212.28125 175.308594 212.449219 C 176.089844 212.605469 176.839844 212.707031 177.527344 212.765625 C 178.214844 212.808594 178.835938 212.824219 179.355469 212.789062 C 180.402344 212.726562 181.027344 212.539062 181.011719 212.453125 C 181 212.371094 180.367188 212.40625 179.351562 212.355469 " fill-opacity="1" fill-rule="nonzero"/><path fill="#59371c" d="M 195.527344 207.007812 C 195.316406 207.496094 195.203125 207.769531 195.203125 207.769531 C 195.203125 207.769531 195.335938 207.507812 195.578125 207.03125 C 195.640625 206.914062 195.707031 206.78125 195.78125 206.636719 C 197.117188 203.886719 198.003906 200.765625 198.554688 197.796875 C 199.144531 194.523438 199.472656 190.644531 199.605469 187.304688 C 199.136719 191.328125 198.8125 194.328125 198.199219 197.730469 C 197.621094 200.855469 196.789062 204.105469 195.527344 207.007812 " fill-opacity="1" fill-rule="nonzero"/><path fill="#59371c" d="M 196.890625 198.558594 C 197.304688 195.933594 197.511719 193.539062 197.625 191.804688 C 197.742188 190.070312 197.773438 188.996094 197.773438 188.996094 C 197.773438 188.996094 197.648438 190.066406 197.449219 191.789062 C 197.242188 193.511719 196.945312 195.890625 196.535156 198.5 C 196.003906 201.871094 195.339844 205.074219 194.816406 207.15625 C 194.703125 207.625 194.640625 207.886719 194.640625 207.886719 C 194.640625 207.886719 194.722656 207.632812 194.871094 207.171875 C 195.613281 204.894531 196.394531 201.71875 196.890625 198.558594 " fill-opacity="1" fill-rule="nonzero"/><path fill="#59371c" d="M 173.15625 192.058594 C 172.953125 190.375 172.894531 188.785156 172.847656 187.222656 C 172.789062 188.871094 172.765625 190.382812 172.910156 192.082031 C 173.15625 196.289062 174.421875 201.039062 175.695312 204.0625 C 176.125 205.164062 176.886719 206.785156 177.375 207.683594 C 177.636719 208.175781 177.785156 208.445312 177.785156 208.445312 C 177.785156 208.445312 177.65625 208.167969 177.425781 207.660156 C 175.40625 203.335938 173.636719 197.125 173.15625 192.058594 " fill-opacity="1" fill-rule="nonzero"/><path fill="#59371c" d="M 209.101562 208.382812 C 208.671875 207.316406 207.742188 206.410156 206.625 206.023438 C 206.300781 205.910156 206.164062 205.894531 205.929688 205.847656 C 206.179688 205.980469 206.253906 206.011719 206.546875 206.1875 C 206.917969 206.414062 207.398438 206.757812 207.863281 207.203125 C 208.332031 207.648438 208.699219 208.109375 208.941406 208.472656 C 209.132812 208.757812 209.167969 208.828125 209.3125 209.074219 C 209.3125 209.074219 209.296875 209.007812 209.265625 208.886719 C 209.238281 208.765625 209.183594 208.59375 209.101562 208.382812 " fill-opacity="1" fill-rule="nonzero"/><path fill="#59371c" d="M 196.0625 193.378906 C 195.171875 199.304688 194.675781 202.113281 193.492188 207.984375 C 194.890625 203.640625 195.898438 197.878906 196.0625 193.378906 " fill-opacity="1" fill-rule="nonzero"/><path fill="#59371c" d="M 186.21875 187.777344 C 187.316406 187.808594 188.527344 187.796875 189.796875 187.710938 C 191.0625 187.621094 192.261719 187.457031 193.347656 187.273438 C 193.886719 187.167969 194.402344 187.074219 194.875 186.960938 C 195.355469 186.859375 195.796875 186.746094 196.195312 186.640625 C 196.601562 186.539062 196.957031 186.425781 197.277344 186.335938 C 197.59375 186.242188 197.863281 186.152344 198.082031 186.078125 C 198.519531 185.929688 198.765625 185.847656 198.765625 185.847656 C 198.765625 185.847656 198.515625 185.914062 198.066406 186.023438 C 197.84375 186.082031 197.566406 186.152344 197.246094 186.222656 C 196.925781 186.292969 196.5625 186.386719 196.15625 186.464844 C 194.113281 186.886719 192.050781 187.183594 189.769531 187.351562 C 188.515625 187.433594 187.316406 187.46875 186.222656 187.46875 C 185.679688 187.460938 185.160156 187.460938 184.675781 187.4375 C 183.160156 187.398438 181.695312 187.242188 180.65625 187.132812 C 182 187.382812 183.234375 187.589844 184.660156 187.6875 C 185.148438 187.730469 185.667969 187.753906 186.21875 187.777344 " fill-opacity="1" fill-rule="nonzero"/><path fill="#59371c" d="M 188.664062 164.890625 C 189.117188 165.484375 189.628906 166.410156 189.863281 167.519531 C 190.097656 168.625 190.007812 169.675781 189.835938 170.410156 C 189.75 170.777344 189.652344 171.070312 189.578125 171.269531 C 189.5 171.46875 189.457031 171.578125 189.457031 171.578125 C 189.457031 171.578125 189.523438 171.480469 189.628906 171.292969 C 189.738281 171.105469 189.875 170.824219 190.007812 170.460938 C 190.273438 169.738281 190.46875 168.628906 190.21875 167.441406 C 189.964844 166.253906 189.339844 165.324219 188.800781 164.769531 C 188.535156 164.492188 188.292969 164.292969 188.117188 164.164062 C 187.945312 164.039062 187.84375 163.976562 187.84375 163.976562 C 187.84375 163.976562 187.929688 164.058594 188.082031 164.207031 C 188.230469 164.359375 188.4375 164.585938 188.664062 164.890625 " fill-opacity="1" fill-rule="nonzero"/><path fill="#59371c" d="M 182.535156 172.351562 C 181.46875 171.265625 180.769531 170.050781 180.539062 168.214844 C 180.257812 169.828125 180.902344 171.46875 182.535156 172.351562 " fill-opacity="1" fill-rule="nonzero"/><g fill="#59371c" fill-opacity="1"><g transform="translate(153.859057, 131.045046)"><g><path d="M 8.671875 -4.625 C 8.691406 -4.644531 8.710938 -4.628906 8.734375 -4.578125 C 8.765625 -4.535156 8.769531 -4.503906 8.75 -4.484375 C 8.488281 -4.359375 8.285156 -4.265625 8.140625 -4.203125 L 7.265625 -3.765625 L 6.359375 -3.28125 C 6.210938 -3.195312 6.019531 -3.09375 5.78125 -2.96875 C 5.757812 -2.957031 5.734375 -2.972656 5.703125 -3.015625 C 5.679688 -3.066406 5.679688 -3.097656 5.703125 -3.109375 C 6.015625 -3.273438 6.234375 -3.414062 6.359375 -3.53125 C 6.484375 -3.644531 6.539062 -3.769531 6.53125 -3.90625 C 6.53125 -4.050781 6.46875 -4.242188 6.34375 -4.484375 L 4.890625 -7.3125 L 0.375 -5 L 1.828125 -2.171875 C 1.953125 -1.929688 2.066406 -1.765625 2.171875 -1.671875 C 2.285156 -1.585938 2.421875 -1.554688 2.578125 -1.578125 C 2.742188 -1.609375 2.984375 -1.707031 3.296875 -1.875 C 3.316406 -1.882812 3.335938 -1.863281 3.359375 -1.8125 C 3.390625 -1.769531 3.394531 -1.742188 3.375 -1.734375 C 3.125 -1.609375 2.925781 -1.507812 2.78125 -1.4375 L 1.859375 -1 L 1.03125 -0.546875 C 0.882812 -0.453125 0.679688 -0.34375 0.421875 -0.21875 C 0.398438 -0.207031 0.375 -0.222656 0.34375 -0.265625 C 0.320312 -0.316406 0.320312 -0.347656 0.34375 -0.359375 C 0.644531 -0.515625 0.851562 -0.644531 0.96875 -0.75 C 1.09375 -0.863281 1.148438 -0.992188 1.140625 -1.140625 C 1.140625 -1.285156 1.078125 -1.476562 0.953125 -1.71875 L -1.921875 -7.328125 C -2.046875 -7.566406 -2.160156 -7.722656 -2.265625 -7.796875 C -2.378906 -7.878906 -2.519531 -7.910156 -2.6875 -7.890625 C -2.851562 -7.867188 -3.085938 -7.78125 -3.390625 -7.625 C -3.398438 -7.613281 -3.414062 -7.628906 -3.4375 -7.671875 C -3.457031 -7.722656 -3.460938 -7.753906 -3.453125 -7.765625 L -2.828125 -8.0625 C -2.484375 -8.226562 -2.203125 -8.367188 -1.984375 -8.484375 C -1.742188 -8.609375 -1.441406 -8.769531 -1.078125 -8.96875 L -0.5 -9.28125 C -0.476562 -9.289062 -0.457031 -9.269531 -0.4375 -9.21875 C -0.414062 -9.175781 -0.414062 -9.148438 -0.4375 -9.140625 C -0.738281 -8.984375 -0.945312 -8.84375 -1.0625 -8.71875 C -1.175781 -8.59375 -1.226562 -8.457031 -1.21875 -8.3125 C -1.21875 -8.175781 -1.15625 -7.988281 -1.03125 -7.75 L 0.25 -5.265625 L 4.765625 -7.578125 L 3.484375 -10.0625 C 3.359375 -10.300781 3.238281 -10.460938 3.125 -10.546875 C 3.019531 -10.640625 2.875 -10.671875 2.6875 -10.640625 C 2.507812 -10.617188 2.269531 -10.53125 1.96875 -10.375 C 1.945312 -10.363281 1.925781 -10.378906 1.90625 -10.421875 C 1.882812 -10.472656 1.882812 -10.503906 1.90625 -10.515625 L 2.484375 -10.796875 C 2.835938 -10.960938 3.148438 -11.113281 3.421875 -11.25 C 3.640625 -11.363281 3.921875 -11.519531 4.265625 -11.71875 L 4.875 -12.03125 C 4.894531 -12.050781 4.914062 -12.035156 4.9375 -11.984375 C 4.957031 -11.941406 4.957031 -11.910156 4.9375 -11.890625 C 4.625 -11.734375 4.410156 -11.597656 4.296875 -11.484375 C 4.179688 -11.367188 4.125 -11.238281 4.125 -11.09375 C 4.132812 -10.957031 4.203125 -10.769531 4.328125 -10.53125 L 7.203125 -4.921875 C 7.328125 -4.679688 7.441406 -4.519531 7.546875 -4.4375 C 7.660156 -4.351562 7.796875 -4.320312 7.953125 -4.34375 C 8.117188 -4.375 8.359375 -4.46875 8.671875 -4.625 Z M 8.671875 -4.625 "/></g></g></g><g fill="#59371c" fill-opacity="1"><g transform="translate(165.756344, 125.447365)"><g><path d="M 2.28125 -1.90625 C 2.375 -1.632812 2.46875 -1.445312 2.5625 -1.34375 C 2.65625 -1.238281 2.78125 -1.1875 2.9375 -1.1875 C 3.09375 -1.195312 3.332031 -1.253906 3.65625 -1.359375 C 3.675781 -1.367188 3.691406 -1.347656 3.703125 -1.296875 C 3.722656 -1.242188 3.722656 -1.210938 3.703125 -1.203125 C 3.429688 -1.117188 3.222656 -1.054688 3.078125 -1.015625 L 2.125 -0.734375 L 1.25 -0.421875 C 1.09375 -0.359375 0.875 -0.28125 0.59375 -0.1875 C 0.5625 -0.175781 0.535156 -0.195312 0.515625 -0.25 C 0.503906 -0.300781 0.515625 -0.332031 0.546875 -0.34375 C 0.859375 -0.445312 1.082031 -0.546875 1.21875 -0.640625 C 1.351562 -0.734375 1.425781 -0.847656 1.4375 -0.984375 C 1.445312 -1.128906 1.410156 -1.332031 1.328125 -1.59375 L -0.609375 -7.578125 C -0.703125 -7.828125 -0.789062 -8.003906 -0.875 -8.109375 C -0.96875 -8.210938 -1.097656 -8.265625 -1.265625 -8.265625 C -1.429688 -8.265625 -1.671875 -8.210938 -1.984375 -8.109375 C -2.015625 -8.097656 -2.035156 -8.113281 -2.046875 -8.15625 C -2.066406 -8.207031 -2.0625 -8.238281 -2.03125 -8.25 L -1.375 -8.453125 C -1.007812 -8.554688 -0.710938 -8.648438 -0.484375 -8.734375 C -0.234375 -8.804688 0.0820312 -8.910156 0.46875 -9.046875 L 1.078125 -9.265625 C 1.097656 -9.273438 1.113281 -9.253906 1.125 -9.203125 C 1.144531 -9.160156 1.144531 -9.132812 1.125 -9.125 C 0.8125 -9.019531 0.585938 -8.914062 0.453125 -8.8125 C 0.328125 -8.707031 0.253906 -8.585938 0.234375 -8.453125 C 0.222656 -8.316406 0.257812 -8.117188 0.34375 -7.859375 Z M 2.28125 -1.90625 "/></g></g></g><g fill="#59371c" fill-opacity="1"><g transform="translate(172.877904, 123.238792)"><g><path d="M 2.328125 -1.59375 C 2.367188 -1.34375 2.425781 -1.164062 2.5 -1.0625 C 2.570312 -0.957031 2.679688 -0.894531 2.828125 -0.875 C 2.984375 -0.863281 3.207031 -0.882812 3.5 -0.9375 L 4.796875 -1.171875 C 5.328125 -1.265625 5.734375 -1.503906 6.015625 -1.890625 C 6.296875 -2.285156 6.441406 -2.765625 6.453125 -3.328125 C 6.441406 -3.359375 6.460938 -3.375 6.515625 -3.375 C 6.566406 -3.382812 6.597656 -3.375 6.609375 -3.34375 C 6.660156 -2.582031 6.734375 -1.945312 6.828125 -1.4375 C 6.835938 -1.363281 6.832031 -1.304688 6.8125 -1.265625 C 6.789062 -1.234375 6.738281 -1.210938 6.65625 -1.203125 L 0.46875 -0.078125 C 0.445312 -0.078125 0.429688 -0.101562 0.421875 -0.15625 C 0.410156 -0.207031 0.414062 -0.234375 0.4375 -0.234375 C 0.757812 -0.296875 0.992188 -0.363281 1.140625 -0.4375 C 1.285156 -0.507812 1.367188 -0.613281 1.390625 -0.75 C 1.421875 -0.882812 1.414062 -1.085938 1.375 -1.359375 L 0.25 -7.5625 C 0.207031 -7.820312 0.148438 -8.007812 0.078125 -8.125 C 0.00390625 -8.238281 -0.109375 -8.304688 -0.265625 -8.328125 C -0.429688 -8.359375 -0.675781 -8.34375 -1 -8.28125 C -1.019531 -8.28125 -1.035156 -8.300781 -1.046875 -8.34375 C -1.054688 -8.394531 -1.050781 -8.421875 -1.03125 -8.421875 L -0.375 -8.53125 C -0.0078125 -8.582031 0.296875 -8.632812 0.546875 -8.6875 C 0.804688 -8.726562 1.125 -8.785156 1.5 -8.859375 L 2.140625 -9 C 2.160156 -9 2.175781 -8.972656 2.1875 -8.921875 C 2.195312 -8.878906 2.191406 -8.859375 2.171875 -8.859375 C 1.859375 -8.796875 1.628906 -8.722656 1.484375 -8.640625 C 1.335938 -8.566406 1.242188 -8.457031 1.203125 -8.3125 C 1.171875 -8.175781 1.179688 -7.976562 1.234375 -7.71875 Z M 2.328125 -1.59375 "/></g></g></g><g fill="#59371c" fill-opacity="1"><g transform="translate(182.815268, 121.606202)"><g><path d="M 4.171875 0.03125 C 3.898438 0.03125 3.585938 0.0195312 3.234375 0 C 3.097656 -0.0078125 2.929688 -0.0195312 2.734375 -0.03125 C 2.535156 -0.0390625 2.320312 -0.046875 2.09375 -0.046875 L 1.15625 -0.015625 C 0.976562 -0.00390625 0.75 0 0.46875 0 C 0.445312 0 0.4375 -0.0234375 0.4375 -0.078125 C 0.4375 -0.128906 0.445312 -0.15625 0.46875 -0.15625 C 0.800781 -0.15625 1.039062 -0.175781 1.1875 -0.21875 C 1.34375 -0.269531 1.453125 -0.359375 1.515625 -0.484375 C 1.578125 -0.617188 1.609375 -0.820312 1.609375 -1.09375 L 1.578125 -7.390625 C 1.578125 -7.660156 1.546875 -7.859375 1.484375 -7.984375 C 1.429688 -8.109375 1.328125 -8.195312 1.171875 -8.25 C 1.023438 -8.300781 0.78125 -8.328125 0.4375 -8.328125 C 0.425781 -8.328125 0.421875 -8.351562 0.421875 -8.40625 C 0.421875 -8.457031 0.425781 -8.484375 0.4375 -8.484375 L 1.125 -8.46875 C 1.519531 -8.46875 1.832031 -8.46875 2.0625 -8.46875 C 2.40625 -8.46875 2.742188 -8.476562 3.078125 -8.5 C 3.515625 -8.519531 3.804688 -8.53125 3.953125 -8.53125 C 4.890625 -8.539062 5.71875 -8.363281 6.4375 -8 C 7.164062 -7.632812 7.726562 -7.140625 8.125 -6.515625 C 8.53125 -5.898438 8.738281 -5.207031 8.75 -4.4375 C 8.75 -3.550781 8.539062 -2.769531 8.125 -2.09375 C 7.71875 -1.414062 7.164062 -0.894531 6.46875 -0.53125 C 5.769531 -0.164062 5.003906 0.0195312 4.171875 0.03125 Z M 4.03125 -0.171875 C 4.726562 -0.171875 5.34375 -0.328125 5.875 -0.640625 C 6.414062 -0.953125 6.835938 -1.398438 7.140625 -1.984375 C 7.441406 -2.578125 7.59375 -3.289062 7.59375 -4.125 C 7.582031 -4.90625 7.429688 -5.613281 7.140625 -6.25 C 6.847656 -6.894531 6.4375 -7.398438 5.90625 -7.765625 C 5.375 -8.128906 4.757812 -8.3125 4.0625 -8.3125 C 3.675781 -8.3125 3.378906 -8.285156 3.171875 -8.234375 C 2.960938 -8.191406 2.804688 -8.101562 2.703125 -7.96875 C 2.609375 -7.84375 2.5625 -7.644531 2.5625 -7.375 L 2.59375 -1.265625 C 2.59375 -0.867188 2.6875 -0.585938 2.875 -0.421875 C 3.070312 -0.253906 3.457031 -0.171875 4.03125 -0.171875 Z M 4.03125 -0.171875 "/></g></g></g><g fill="#59371c" fill-opacity="1"><g transform="translate(195.086786, 121.955636)"><g><path d="M 2.890625 -0.671875 C 2.847656 -0.398438 2.847656 -0.195312 2.890625 -0.0625 C 2.929688 0.0703125 3.019531 0.171875 3.15625 0.234375 C 3.300781 0.304688 3.535156 0.367188 3.859375 0.421875 C 3.878906 0.421875 3.882812 0.445312 3.875 0.5 C 3.875 0.550781 3.863281 0.578125 3.84375 0.578125 C 3.570312 0.535156 3.359375 0.5 3.203125 0.46875 L 2.21875 0.296875 L 1.296875 0.171875 C 1.128906 0.160156 0.90625 0.132812 0.625 0.09375 C 0.59375 0.0820312 0.578125 0.0507812 0.578125 0 C 0.585938 -0.0507812 0.609375 -0.0703125 0.640625 -0.0625 C 0.960938 -0.0078125 1.207031 0.00390625 1.375 -0.015625 C 1.539062 -0.046875 1.660156 -0.117188 1.734375 -0.234375 C 1.816406 -0.359375 1.875 -0.550781 1.90625 -0.8125 L 2.84375 -7.046875 C 2.882812 -7.316406 2.882812 -7.515625 2.84375 -7.640625 C 2.800781 -7.773438 2.707031 -7.878906 2.5625 -7.953125 C 2.414062 -8.023438 2.179688 -8.085938 1.859375 -8.140625 C 1.828125 -8.148438 1.8125 -8.179688 1.8125 -8.234375 C 1.820312 -8.285156 1.84375 -8.304688 1.875 -8.296875 L 2.546875 -8.1875 C 2.929688 -8.113281 3.238281 -8.0625 3.46875 -8.03125 C 3.726562 -7.988281 4.0625 -7.941406 4.46875 -7.890625 L 5.09375 -7.8125 C 5.113281 -7.8125 5.117188 -7.785156 5.109375 -7.734375 C 5.109375 -7.679688 5.097656 -7.65625 5.078125 -7.65625 C 4.765625 -7.707031 4.523438 -7.710938 4.359375 -7.671875 C 4.191406 -7.640625 4.070312 -7.566406 4 -7.453125 C 3.925781 -7.335938 3.867188 -7.144531 3.828125 -6.875 Z M 2.890625 -0.671875 "/></g></g></g><g fill="#59371c" fill-opacity="1"><g transform="translate(202.422689, 123.115831)"><g><path d="M 4.9375 -7.109375 C 4.394531 -7.265625 3.929688 -7.242188 3.546875 -7.046875 C 3.160156 -6.847656 2.800781 -6.4375 2.46875 -5.8125 C 2.46875 -5.789062 2.441406 -5.789062 2.390625 -5.8125 C 2.347656 -5.832031 2.328125 -5.847656 2.328125 -5.859375 C 2.421875 -6.097656 2.570312 -6.476562 2.78125 -7 C 3 -7.519531 3.148438 -7.921875 3.234375 -8.203125 C 3.242188 -8.242188 3.273438 -8.253906 3.328125 -8.234375 C 3.390625 -8.222656 3.414062 -8.195312 3.40625 -8.15625 C 3.34375 -7.957031 3.546875 -7.785156 4.015625 -7.640625 C 4.742188 -7.398438 5.609375 -7.128906 6.609375 -6.828125 C 7.117188 -6.671875 7.660156 -6.503906 8.234375 -6.328125 L 9.125 -6.078125 C 9.425781 -5.984375 9.660156 -5.9375 9.828125 -5.9375 C 10.003906 -5.9375 10.132812 -5.992188 10.21875 -6.109375 C 10.238281 -6.140625 10.269531 -6.144531 10.3125 -6.125 C 10.351562 -6.113281 10.367188 -6.09375 10.359375 -6.0625 C 10.253906 -5.832031 10.109375 -5.457031 9.921875 -4.9375 C 9.742188 -4.414062 9.601562 -3.992188 9.5 -3.671875 C 9.5 -3.660156 9.472656 -3.660156 9.421875 -3.671875 C 9.367188 -3.691406 9.335938 -3.710938 9.328125 -3.734375 C 9.503906 -4.410156 9.5 -4.929688 9.3125 -5.296875 C 9.132812 -5.671875 8.757812 -5.941406 8.1875 -6.109375 C 7.84375 -6.210938 7.585938 -6.269531 7.421875 -6.28125 C 7.265625 -6.289062 7.140625 -6.25 7.046875 -6.15625 C 6.953125 -6.0625 6.863281 -5.890625 6.78125 -5.640625 L 4.953125 0.359375 C 4.878906 0.628906 4.851562 0.832031 4.875 0.96875 C 4.894531 1.113281 4.976562 1.226562 5.125 1.3125 C 5.28125 1.40625 5.546875 1.515625 5.921875 1.640625 C 5.941406 1.640625 5.941406 1.664062 5.921875 1.71875 C 5.910156 1.769531 5.894531 1.796875 5.875 1.796875 C 5.570312 1.703125 5.335938 1.625 5.171875 1.5625 L 4.15625 1.234375 L 3.15625 0.9375 C 2.988281 0.90625 2.75 0.84375 2.4375 0.75 C 2.414062 0.738281 2.410156 0.707031 2.421875 0.65625 C 2.441406 0.601562 2.460938 0.582031 2.484375 0.59375 C 2.835938 0.695312 3.109375 0.753906 3.296875 0.765625 C 3.492188 0.773438 3.640625 0.726562 3.734375 0.625 C 3.828125 0.519531 3.910156 0.335938 3.984375 0.078125 L 5.828125 -5.9375 C 5.898438 -6.1875 5.925781 -6.375 5.90625 -6.5 C 5.894531 -6.632812 5.816406 -6.742188 5.671875 -6.828125 C 5.523438 -6.910156 5.28125 -7.003906 4.9375 -7.109375 Z M 4.9375 -7.109375 "/></g></g></g><g fill="#59371c" fill-opacity="1"><g transform="translate(213.267862, 126.64125)"><g><path d="M 8.53125 4.265625 C 8.570312 4.285156 8.578125 4.316406 8.546875 4.359375 C 8.523438 4.410156 8.492188 4.425781 8.453125 4.40625 C 8.304688 4.320312 8.078125 4.1875 7.765625 4 C 7.441406 3.820312 7.203125 3.691406 7.046875 3.609375 C 6.867188 3.515625 6.640625 3.40625 6.359375 3.28125 C 6.085938 3.164062 5.882812 3.070312 5.75 3 C 5.71875 2.976562 5.710938 2.941406 5.734375 2.890625 C 5.765625 2.847656 5.796875 2.835938 5.828125 2.859375 C 6.117188 3.003906 6.335938 3.078125 6.484375 3.078125 C 6.640625 3.085938 6.753906 3.03125 6.828125 2.90625 C 6.890625 2.78125 6.925781 2.570312 6.9375 2.28125 L 7.015625 -0.4375 L 4.140625 -1.9375 L 2.578125 -0.640625 C 2.347656 -0.453125 2.179688 -0.257812 2.078125 -0.0625 C 1.816406 0.445312 2.070312 0.898438 2.84375 1.296875 C 2.882812 1.316406 2.890625 1.347656 2.859375 1.390625 C 2.835938 1.441406 2.804688 1.457031 2.765625 1.4375 C 2.617188 1.363281 2.414062 1.25 2.15625 1.09375 C 1.851562 0.914062 1.585938 0.769531 1.359375 0.65625 C 1.160156 0.550781 0.914062 0.425781 0.625 0.28125 C 0.375 0.175781 0.164062 0.0820312 0 0 C -0.0390625 -0.0195312 -0.046875 -0.0507812 -0.015625 -0.09375 C 0.00390625 -0.144531 0.0351562 -0.160156 0.078125 -0.140625 C 0.296875 -0.0234375 0.503906 0.0234375 0.703125 0.015625 C 0.898438 0.015625 1.128906 -0.0507812 1.390625 -0.1875 C 1.660156 -0.320312 1.992188 -0.554688 2.390625 -0.890625 L 8.015625 -5.515625 C 8.046875 -5.523438 8.082031 -5.519531 8.125 -5.5 C 8.175781 -5.476562 8.203125 -5.453125 8.203125 -5.421875 L 7.953125 2.03125 C 7.921875 2.757812 7.945312 3.28125 8.03125 3.59375 C 8.113281 3.90625 8.28125 4.128906 8.53125 4.265625 Z M 4.375 -2.125 L 7.015625 -0.75 L 7.15625 -4.40625 Z M 4.375 -2.125 "/></g></g></g><g fill="#59371c" fill-opacity="1"><g transform="translate(139.710461, 241.790803)"><g><path d="M 9.765625 -3.328125 C 10.191406 -2.984375 10.535156 -2.660156 10.796875 -2.359375 C 11.054688 -2.054688 11.28125 -1.71875 11.46875 -1.34375 C 11.488281 -1.28125 11.492188 -1.226562 11.484375 -1.1875 C 11.484375 -1.15625 11.457031 -1.09375 11.40625 -1 L 10.515625 0.40625 C 10.492188 0.4375 10.457031 0.4375 10.40625 0.40625 C 10.363281 0.382812 10.347656 0.351562 10.359375 0.3125 C 10.953125 -1.144531 10.6875 -2.316406 9.5625 -3.203125 C 8.976562 -3.660156 8.359375 -3.925781 7.703125 -4 C 7.054688 -4.082031 6.414062 -3.972656 5.78125 -3.671875 C 5.15625 -3.378906 4.59375 -2.910156 4.09375 -2.265625 C 3.601562 -1.640625 3.289062 -0.96875 3.15625 -0.25 C 3.019531 0.46875 3.0625 1.15625 3.28125 1.8125 C 3.507812 2.46875 3.894531 3.007812 4.4375 3.4375 C 5.007812 3.875 5.582031 4.085938 6.15625 4.078125 C 6.726562 4.078125 7.351562 3.867188 8.03125 3.453125 C 8.0625 3.429688 8.09375 3.4375 8.125 3.46875 C 8.15625 3.507812 8.160156 3.539062 8.140625 3.5625 L 7.09375 4.671875 C 7.019531 4.742188 6.96875 4.785156 6.9375 4.796875 C 6.914062 4.804688 6.863281 4.816406 6.78125 4.828125 C 6.289062 4.703125 5.851562 4.546875 5.46875 4.359375 C 5.09375 4.171875 4.703125 3.914062 4.296875 3.59375 C 3.546875 3.007812 2.992188 2.335938 2.640625 1.578125 C 2.285156 0.816406 2.148438 0.046875 2.234375 -0.734375 C 2.316406 -1.515625 2.628906 -2.25 3.171875 -2.9375 C 3.691406 -3.601562 4.320312 -4.066406 5.0625 -4.328125 C 5.8125 -4.585938 6.597656 -4.628906 7.421875 -4.453125 C 8.242188 -4.285156 9.023438 -3.910156 9.765625 -3.328125 Z M 9.765625 -3.328125 "/></g></g></g><g fill="#59371c" fill-opacity="1"><g transform="translate(150.420602, 249.731054)"><g><path d="M 8.546875 4.234375 C 8.585938 4.253906 8.59375 4.285156 8.5625 4.328125 C 8.539062 4.378906 8.507812 4.394531 8.46875 4.375 C 8.320312 4.300781 8.09375 4.164062 7.78125 3.96875 C 7.457031 3.789062 7.210938 3.664062 7.046875 3.59375 C 6.878906 3.5 6.65625 3.382812 6.375 3.25 C 6.101562 3.132812 5.898438 3.039062 5.765625 2.96875 C 5.722656 2.957031 5.710938 2.925781 5.734375 2.875 C 5.765625 2.832031 5.800781 2.816406 5.84375 2.828125 C 6.125 2.984375 6.335938 3.0625 6.484375 3.0625 C 6.640625 3.070312 6.753906 3.015625 6.828125 2.890625 C 6.890625 2.765625 6.929688 2.550781 6.953125 2.25 L 7.015625 -0.453125 L 4.125 -1.9375 L 2.578125 -0.65625 C 2.347656 -0.46875 2.179688 -0.273438 2.078125 -0.078125 C 1.816406 0.429688 2.078125 0.890625 2.859375 1.296875 C 2.890625 1.316406 2.890625 1.347656 2.859375 1.390625 C 2.835938 1.441406 2.8125 1.457031 2.78125 1.4375 C 2.625 1.351562 2.421875 1.234375 2.171875 1.078125 C 1.859375 0.910156 1.585938 0.769531 1.359375 0.65625 C 1.171875 0.550781 0.925781 0.425781 0.625 0.28125 C 0.375 0.175781 0.164062 0.0820312 0 0 C -0.0390625 -0.0195312 -0.046875 -0.0507812 -0.015625 -0.09375 C 0.00390625 -0.144531 0.0351562 -0.160156 0.078125 -0.140625 C 0.296875 -0.0234375 0.503906 0.0234375 0.703125 0.015625 C 0.910156 0.015625 1.144531 -0.0546875 1.40625 -0.203125 C 1.664062 -0.347656 1.992188 -0.582031 2.390625 -0.90625 L 7.984375 -5.546875 C 8.023438 -5.554688 8.070312 -5.550781 8.125 -5.53125 C 8.164062 -5.507812 8.179688 -5.484375 8.171875 -5.453125 L 7.96875 2.015625 C 7.9375 2.734375 7.960938 3.25 8.046875 3.5625 C 8.128906 3.875 8.296875 4.097656 8.546875 4.234375 Z M 4.375 -2.140625 L 7.03125 -0.765625 L 7.140625 -4.421875 Z M 4.375 -2.140625 "/></g></g></g><g fill="#59371c" fill-opacity="1"><g transform="translate(162.634906, 255.531037)"><g><path d="M 7.96875 -4.484375 C 7.957031 -4.453125 7.925781 -4.441406 7.875 -4.453125 C 7.820312 -4.472656 7.800781 -4.5 7.8125 -4.53125 C 7.90625 -5.007812 7.859375 -5.414062 7.671875 -5.75 C 7.484375 -6.09375 7.175781 -6.332031 6.75 -6.46875 L 6.03125 -6.6875 C 5.644531 -6.8125 5.363281 -6.835938 5.1875 -6.765625 C 5.019531 -6.703125 4.890625 -6.519531 4.796875 -6.21875 L 3.90625 -3.390625 L 5.140625 -3 C 5.609375 -2.851562 5.96875 -2.820312 6.21875 -2.90625 C 6.476562 -2.988281 6.65625 -3.1875 6.75 -3.5 C 6.757812 -3.519531 6.789062 -3.519531 6.84375 -3.5 C 6.894531 -3.488281 6.914062 -3.472656 6.90625 -3.453125 L 6.578125 -2.375 C 6.492188 -2.132812 6.429688 -1.945312 6.390625 -1.8125 L 6.203125 -1.15625 C 6.203125 -1.144531 6.175781 -1.144531 6.125 -1.15625 C 6.070312 -1.175781 6.046875 -1.191406 6.046875 -1.203125 C 6.171875 -1.585938 6.148438 -1.894531 5.984375 -2.125 C 5.816406 -2.363281 5.492188 -2.5625 5.015625 -2.71875 L 3.8125 -3.09375 L 2.921875 -0.296875 C 2.835938 -0.015625 2.8125 0.195312 2.84375 0.34375 C 2.875 0.488281 2.984375 0.617188 3.171875 0.734375 C 3.367188 0.859375 3.695312 0.992188 4.15625 1.140625 C 4.175781 1.140625 4.175781 1.164062 4.15625 1.21875 C 4.144531 1.269531 4.128906 1.296875 4.109375 1.296875 C 3.765625 1.179688 3.492188 1.085938 3.296875 1.015625 L 2.109375 0.625 L 1.203125 0.359375 C 1.035156 0.316406 0.8125 0.253906 0.53125 0.171875 C 0.5 0.160156 0.488281 0.128906 0.5 0.078125 C 0.519531 0.0234375 0.546875 0.00390625 0.578125 0.015625 C 0.898438 0.109375 1.140625 0.15625 1.296875 0.15625 C 1.460938 0.164062 1.59375 0.117188 1.6875 0.015625 C 1.78125 -0.0859375 1.867188 -0.269531 1.953125 -0.53125 L 3.84375 -6.53125 C 3.925781 -6.789062 3.957031 -6.988281 3.9375 -7.125 C 3.925781 -7.257812 3.859375 -7.375 3.734375 -7.46875 C 3.609375 -7.5625 3.378906 -7.660156 3.046875 -7.765625 C 3.035156 -7.765625 3.035156 -7.789062 3.046875 -7.84375 C 3.066406 -7.894531 3.082031 -7.921875 3.09375 -7.921875 L 8.359375 -6.265625 C 8.441406 -6.242188 8.472656 -6.191406 8.453125 -6.109375 Z M 7.96875 -4.484375 "/></g></g></g><g fill="#59371c" fill-opacity="1"><g transform="translate(173.080863, 258.513433)"><g><path d="M 6.71875 -1.046875 C 6.726562 -1.078125 6.757812 -1.082031 6.8125 -1.0625 C 6.875 -1.050781 6.898438 -1.03125 6.890625 -1 C 6.722656 -0.4375 6.59375 0.148438 6.5 0.765625 C 6.488281 0.835938 6.460938 0.882812 6.421875 0.90625 C 6.390625 0.9375 6.332031 0.945312 6.25 0.9375 L 0.578125 0.09375 C 0.566406 0.0820312 0.5625 0.0507812 0.5625 0 C 0.570312 -0.0507812 0.582031 -0.0703125 0.59375 -0.0625 C 0.925781 -0.0195312 1.171875 -0.0078125 1.328125 -0.03125 C 1.492188 -0.0507812 1.613281 -0.125 1.6875 -0.25 C 1.757812 -0.375 1.8125 -0.566406 1.84375 -0.828125 L 2.78125 -7.0625 C 2.820312 -7.320312 2.828125 -7.515625 2.796875 -7.640625 C 2.765625 -7.773438 2.675781 -7.878906 2.53125 -7.953125 C 2.382812 -8.035156 2.144531 -8.097656 1.8125 -8.140625 C 1.800781 -8.148438 1.800781 -8.179688 1.8125 -8.234375 C 1.820312 -8.285156 1.832031 -8.304688 1.84375 -8.296875 L 7.296875 -7.484375 C 7.378906 -7.472656 7.414062 -7.425781 7.40625 -7.34375 L 7.1875 -5.65625 C 7.175781 -5.625 7.144531 -5.613281 7.09375 -5.625 C 7.039062 -5.632812 7.019531 -5.65625 7.03125 -5.6875 C 7.050781 -6.1875 6.9375 -6.582031 6.6875 -6.875 C 6.445312 -7.175781 6.109375 -7.359375 5.671875 -7.421875 L 4.921875 -7.53125 C 4.503906 -7.59375 4.21875 -7.570312 4.0625 -7.46875 C 3.914062 -7.375 3.816406 -7.164062 3.765625 -6.84375 L 3.34375 -4.109375 L 4.890625 -3.875 C 5.328125 -3.8125 5.660156 -3.835938 5.890625 -3.953125 C 6.117188 -4.078125 6.257812 -4.3125 6.3125 -4.65625 C 6.3125 -4.664062 6.335938 -4.664062 6.390625 -4.65625 C 6.453125 -4.65625 6.484375 -4.648438 6.484375 -4.640625 L 6.296875 -3.515625 C 6.253906 -3.253906 6.226562 -3.054688 6.21875 -2.921875 L 6.140625 -2.25 C 6.140625 -2.226562 6.109375 -2.222656 6.046875 -2.234375 C 5.992188 -2.242188 5.96875 -2.257812 5.96875 -2.28125 C 6.03125 -2.664062 5.96875 -2.960938 5.78125 -3.171875 C 5.601562 -3.378906 5.285156 -3.519531 4.828125 -3.59375 L 3.3125 -3.8125 L 2.84375 -0.734375 C 2.8125 -0.492188 2.8125 -0.316406 2.84375 -0.203125 C 2.875 -0.0859375 2.953125 0.00390625 3.078125 0.078125 C 3.210938 0.148438 3.414062 0.207031 3.6875 0.25 L 4.65625 0.390625 C 5.125 0.460938 5.535156 0.375 5.890625 0.125 C 6.242188 -0.125 6.519531 -0.515625 6.71875 -1.046875 Z M 6.71875 -1.046875 "/></g></g></g><g fill="#59371c" fill-opacity="1"><g transform="translate(184.283516, 259.918606)"><g><path d="M 2.484375 -8.28125 C 1.921875 -8.269531 1.488281 -8.109375 1.1875 -7.796875 C 0.882812 -7.484375 0.675781 -6.984375 0.5625 -6.296875 C 0.5625 -6.273438 0.535156 -6.265625 0.484375 -6.265625 C 0.429688 -6.273438 0.40625 -6.285156 0.40625 -6.296875 C 0.425781 -6.554688 0.453125 -6.960938 0.484375 -7.515625 C 0.523438 -8.078125 0.546875 -8.503906 0.546875 -8.796875 C 0.535156 -8.847656 0.554688 -8.875 0.609375 -8.875 C 0.671875 -8.875 0.707031 -8.847656 0.71875 -8.796875 C 0.71875 -8.597656 0.960938 -8.503906 1.453125 -8.515625 C 2.222656 -8.503906 3.128906 -8.507812 4.171875 -8.53125 C 4.703125 -8.539062 5.269531 -8.554688 5.875 -8.578125 L 6.796875 -8.609375 C 7.117188 -8.617188 7.359375 -8.644531 7.515625 -8.6875 C 7.679688 -8.738281 7.785156 -8.832031 7.828125 -8.96875 C 7.828125 -9 7.847656 -9.015625 7.890625 -9.015625 C 7.941406 -9.023438 7.972656 -9.015625 7.984375 -8.984375 C 7.953125 -8.722656 7.925781 -8.316406 7.90625 -7.765625 C 7.894531 -7.222656 7.894531 -6.78125 7.90625 -6.4375 C 7.90625 -6.425781 7.878906 -6.414062 7.828125 -6.40625 C 7.773438 -6.40625 7.742188 -6.410156 7.734375 -6.421875 C 7.679688 -7.117188 7.507812 -7.613281 7.21875 -7.90625 C 6.925781 -8.207031 6.484375 -8.351562 5.890625 -8.34375 C 5.523438 -8.34375 5.265625 -8.320312 5.109375 -8.28125 C 4.953125 -8.238281 4.84375 -8.15625 4.78125 -8.03125 C 4.726562 -7.914062 4.703125 -7.722656 4.703125 -7.453125 L 4.828125 -1.1875 C 4.828125 -0.90625 4.859375 -0.703125 4.921875 -0.578125 C 4.992188 -0.453125 5.113281 -0.367188 5.28125 -0.328125 C 5.457031 -0.285156 5.742188 -0.265625 6.140625 -0.265625 C 6.160156 -0.265625 6.171875 -0.238281 6.171875 -0.1875 C 6.171875 -0.132812 6.160156 -0.109375 6.140625 -0.109375 C 5.828125 -0.109375 5.582031 -0.109375 5.40625 -0.109375 L 4.328125 -0.109375 L 3.296875 -0.078125 C 3.117188 -0.0664062 2.867188 -0.0546875 2.546875 -0.046875 C 2.523438 -0.046875 2.515625 -0.0703125 2.515625 -0.125 C 2.515625 -0.175781 2.523438 -0.203125 2.546875 -0.203125 C 2.921875 -0.210938 3.195312 -0.238281 3.375 -0.28125 C 3.5625 -0.332031 3.679688 -0.425781 3.734375 -0.5625 C 3.796875 -0.695312 3.828125 -0.898438 3.828125 -1.171875 L 3.703125 -7.46875 C 3.703125 -7.726562 3.671875 -7.910156 3.609375 -8.015625 C 3.546875 -8.128906 3.429688 -8.203125 3.265625 -8.234375 C 3.109375 -8.273438 2.847656 -8.289062 2.484375 -8.28125 Z M 2.484375 -8.28125 "/></g></g></g><g fill="#59371c" fill-opacity="1"><g transform="translate(196.85533, 259.299283)"><g><path d="M 6.015625 -3.203125 C 6.003906 -3.234375 6.03125 -3.25 6.09375 -3.25 C 6.15625 -3.257812 6.1875 -3.25 6.1875 -3.21875 C 6.207031 -2.632812 6.28125 -2.035156 6.40625 -1.421875 C 6.414062 -1.347656 6.40625 -1.289062 6.375 -1.25 C 6.351562 -1.21875 6.300781 -1.191406 6.21875 -1.171875 L 0.5625 -0.109375 C 0.550781 -0.109375 0.539062 -0.132812 0.53125 -0.1875 C 0.519531 -0.238281 0.519531 -0.265625 0.53125 -0.265625 C 0.875 -0.328125 1.113281 -0.394531 1.25 -0.46875 C 1.382812 -0.539062 1.46875 -0.644531 1.5 -0.78125 C 1.53125 -0.914062 1.519531 -1.117188 1.46875 -1.390625 L 0.296875 -7.578125 C 0.253906 -7.835938 0.191406 -8.023438 0.109375 -8.140625 C 0.0351562 -8.253906 -0.078125 -8.320312 -0.234375 -8.34375 C -0.390625 -8.375 -0.640625 -8.359375 -0.984375 -8.296875 C -0.992188 -8.296875 -1.003906 -8.320312 -1.015625 -8.375 C -1.023438 -8.425781 -1.023438 -8.453125 -1.015625 -8.453125 L 4.40625 -9.46875 C 4.488281 -9.488281 4.539062 -9.457031 4.5625 -9.375 L 4.90625 -7.71875 C 4.90625 -7.6875 4.878906 -7.664062 4.828125 -7.65625 C 4.773438 -7.644531 4.75 -7.65625 4.75 -7.6875 C 4.601562 -8.15625 4.367188 -8.488281 4.046875 -8.6875 C 3.722656 -8.894531 3.34375 -8.957031 2.90625 -8.875 L 2.171875 -8.734375 C 1.753906 -8.660156 1.488281 -8.550781 1.375 -8.40625 C 1.257812 -8.257812 1.234375 -8.023438 1.296875 -7.703125 L 1.8125 -4.984375 L 3.34375 -5.28125 C 3.789062 -5.363281 4.097656 -5.5 4.265625 -5.6875 C 4.429688 -5.875 4.484375 -6.140625 4.421875 -6.484375 C 4.421875 -6.492188 4.445312 -6.503906 4.5 -6.515625 C 4.5625 -6.523438 4.59375 -6.523438 4.59375 -6.515625 L 4.796875 -5.390625 C 4.835938 -5.140625 4.878906 -4.945312 4.921875 -4.8125 L 5.0625 -4.15625 C 5.0625 -4.132812 5.03125 -4.117188 4.96875 -4.109375 C 4.914062 -4.097656 4.890625 -4.101562 4.890625 -4.125 C 4.816406 -4.507812 4.660156 -4.769531 4.421875 -4.90625 C 4.179688 -5.039062 3.828125 -5.0625 3.359375 -4.96875 L 1.859375 -4.6875 L 2.4375 -1.640625 C 2.488281 -1.398438 2.550781 -1.226562 2.625 -1.125 C 2.695312 -1.019531 2.800781 -0.957031 2.9375 -0.9375 C 3.070312 -0.914062 3.28125 -0.929688 3.5625 -0.984375 L 4.515625 -1.15625 C 4.984375 -1.25 5.347656 -1.472656 5.609375 -1.828125 C 5.867188 -2.179688 6.003906 -2.640625 6.015625 -3.203125 Z M 6.015625 -3.203125 "/></g></g></g><g fill="#59371c" fill-opacity="1"><g transform="translate(207.915168, 256.946357)"><g><path d="M 8.671875 -3.40625 C 8.703125 -3.425781 8.726562 -3.410156 8.75 -3.359375 C 8.769531 -3.316406 8.765625 -3.285156 8.734375 -3.265625 L 7 -2.625 C 6.789062 -2.539062 6.273438 -2.738281 5.453125 -3.21875 C 4.628906 -3.707031 3.582031 -4.421875 2.3125 -5.359375 C 2.09375 -5.210938 1.882812 -5.101562 1.6875 -5.03125 C 1.644531 -5.019531 1.441406 -4.960938 1.078125 -4.859375 L 2.15625 -1.984375 C 2.257812 -1.710938 2.351562 -1.53125 2.4375 -1.4375 C 2.53125 -1.34375 2.65625 -1.296875 2.8125 -1.296875 C 2.976562 -1.304688 3.21875 -1.367188 3.53125 -1.484375 C 3.5625 -1.492188 3.585938 -1.472656 3.609375 -1.421875 C 3.628906 -1.378906 3.625 -1.351562 3.59375 -1.34375 C 3.320312 -1.238281 3.113281 -1.164062 2.96875 -1.125 L 2.0625 -0.8125 L 1.203125 -0.46875 C 1.035156 -0.394531 0.816406 -0.304688 0.546875 -0.203125 C 0.535156 -0.203125 0.519531 -0.222656 0.5 -0.265625 C 0.476562 -0.316406 0.472656 -0.34375 0.484375 -0.34375 C 0.804688 -0.46875 1.03125 -0.578125 1.15625 -0.671875 C 1.28125 -0.773438 1.347656 -0.894531 1.359375 -1.03125 C 1.367188 -1.175781 1.320312 -1.378906 1.21875 -1.640625 L -0.984375 -7.53125 C -1.078125 -7.78125 -1.171875 -7.953125 -1.265625 -8.046875 C -1.359375 -8.148438 -1.484375 -8.195312 -1.640625 -8.1875 C -1.804688 -8.1875 -2.039062 -8.128906 -2.34375 -8.015625 C -2.375 -8.003906 -2.398438 -8.019531 -2.421875 -8.0625 C -2.441406 -8.113281 -2.4375 -8.144531 -2.40625 -8.15625 L -1.765625 -8.390625 C -1.421875 -8.503906 -1.128906 -8.609375 -0.890625 -8.703125 C -0.710938 -8.765625 -0.539062 -8.828125 -0.375 -8.890625 C -0.21875 -8.960938 -0.0859375 -9.019531 0.015625 -9.0625 C 0.316406 -9.207031 0.601562 -9.332031 0.875 -9.4375 C 1.5625 -9.695312 2.148438 -9.742188 2.640625 -9.578125 C 3.128906 -9.421875 3.46875 -9.09375 3.65625 -8.59375 C 3.832031 -8.132812 3.851562 -7.660156 3.71875 -7.171875 C 3.59375 -6.691406 3.347656 -6.269531 2.984375 -5.90625 C 4.085938 -5.144531 4.984375 -4.5625 5.671875 -4.15625 C 6.367188 -3.757812 6.953125 -3.503906 7.421875 -3.390625 C 7.898438 -3.273438 8.316406 -3.28125 8.671875 -3.40625 Z M 0.96875 -5.171875 C 1.207031 -5.222656 1.460938 -5.300781 1.734375 -5.40625 C 2.367188 -5.644531 2.769531 -5.953125 2.9375 -6.328125 C 3.101562 -6.710938 3.070312 -7.207031 2.84375 -7.8125 C 2.59375 -8.488281 2.273438 -8.914062 1.890625 -9.09375 C 1.503906 -9.269531 1.046875 -9.257812 0.515625 -9.0625 C 0.179688 -8.945312 -0.0234375 -8.800781 -0.109375 -8.625 C -0.191406 -8.457031 -0.164062 -8.195312 -0.03125 -7.84375 Z M 0.96875 -5.171875 "/></g></g></g><g fill="#59371c" fill-opacity="1"><g transform="translate(220.002893, 251.91554)"><g><path d="M 1.875 -2.296875 C 2.007812 -2.054688 2.132812 -1.894531 2.25 -1.8125 C 2.363281 -1.738281 2.492188 -1.71875 2.640625 -1.75 C 2.796875 -1.78125 3.019531 -1.878906 3.3125 -2.046875 C 3.332031 -2.054688 3.351562 -2.035156 3.375 -1.984375 C 3.40625 -1.941406 3.410156 -1.914062 3.390625 -1.90625 C 3.148438 -1.757812 2.960938 -1.65625 2.828125 -1.59375 L 1.953125 -1.125 L 1.140625 -0.65625 C 0.992188 -0.5625 0.796875 -0.445312 0.546875 -0.3125 C 0.515625 -0.289062 0.484375 -0.300781 0.453125 -0.34375 C 0.429688 -0.394531 0.4375 -0.429688 0.46875 -0.453125 C 0.757812 -0.609375 0.960938 -0.742188 1.078125 -0.859375 C 1.191406 -0.984375 1.242188 -1.113281 1.234375 -1.25 C 1.222656 -1.382812 1.148438 -1.570312 1.015625 -1.8125 L -2.0625 -7.3125 C -2.195312 -7.539062 -2.316406 -7.695312 -2.421875 -7.78125 C -2.535156 -7.863281 -2.671875 -7.890625 -2.828125 -7.859375 C -2.992188 -7.828125 -3.222656 -7.734375 -3.515625 -7.578125 C -3.546875 -7.554688 -3.570312 -7.566406 -3.59375 -7.609375 C -3.625 -7.660156 -3.625 -7.695312 -3.59375 -7.71875 L -3 -8.03125 C -2.644531 -8.207031 -2.363281 -8.351562 -2.15625 -8.46875 C -1.9375 -8.59375 -1.648438 -8.765625 -1.296875 -8.984375 L -0.75 -9.3125 C -0.726562 -9.320312 -0.703125 -9.300781 -0.671875 -9.25 C -0.648438 -9.207031 -0.648438 -9.179688 -0.671875 -9.171875 C -0.953125 -9.003906 -1.144531 -8.859375 -1.25 -8.734375 C -1.363281 -8.617188 -1.414062 -8.488281 -1.40625 -8.34375 C -1.394531 -8.195312 -1.320312 -8.003906 -1.1875 -7.765625 Z M 1.875 -2.296875 "/></g></g></g><g fill="#59371c" fill-opacity="1"><g transform="translate(227.32698, 247.695796)"><g><path d="M 7.40625 -6 C 7.445312 -6.019531 7.484375 -6.007812 7.515625 -5.96875 C 7.546875 -5.925781 7.539062 -5.894531 7.5 -5.875 C 7.375 -5.769531 7.160156 -5.617188 6.859375 -5.421875 C 6.566406 -5.191406 6.347656 -5.019531 6.203125 -4.90625 C 6.046875 -4.789062 5.851562 -4.632812 5.625 -4.4375 C 5.40625 -4.238281 5.234375 -4.09375 5.109375 -4 C 5.078125 -3.96875 5.046875 -3.972656 5.015625 -4.015625 C 4.984375 -4.054688 4.984375 -4.09375 5.015625 -4.125 C 5.265625 -4.320312 5.421875 -4.488281 5.484375 -4.625 C 5.554688 -4.757812 5.550781 -4.882812 5.46875 -5 C 5.375 -5.113281 5.195312 -5.238281 4.9375 -5.375 L 2.515625 -6.578125 L -0.046875 -4.578125 L 0.46875 -2.609375 C 0.539062 -2.328125 0.648438 -2.09375 0.796875 -1.90625 C 1.148438 -1.457031 1.675781 -1.503906 2.375 -2.046875 C 2.40625 -2.078125 2.4375 -2.070312 2.46875 -2.03125 C 2.5 -1.988281 2.5 -1.953125 2.46875 -1.921875 C 2.332031 -1.816406 2.140625 -1.6875 1.890625 -1.53125 C 1.609375 -1.3125 1.363281 -1.125 1.15625 -0.96875 C 0.988281 -0.832031 0.78125 -0.660156 0.53125 -0.453125 C 0.320312 -0.265625 0.144531 -0.113281 0 0 C -0.03125 0.0195312 -0.0625 0.0078125 -0.09375 -0.03125 C -0.125 -0.0703125 -0.125 -0.101562 -0.09375 -0.125 C 0.101562 -0.28125 0.238281 -0.453125 0.3125 -0.640625 C 0.394531 -0.828125 0.425781 -1.066406 0.40625 -1.359375 C 0.382812 -1.648438 0.304688 -2.039062 0.171875 -2.53125 L -1.703125 -9.578125 C -1.703125 -9.609375 -1.6875 -9.640625 -1.65625 -9.671875 C -1.613281 -9.703125 -1.578125 -9.710938 -1.546875 -9.703125 L 5.15625 -6.40625 C 5.789062 -6.0625 6.269531 -5.863281 6.59375 -5.8125 C 6.914062 -5.757812 7.1875 -5.820312 7.40625 -6 Z M -0.125 -4.875 L 2.234375 -6.703125 L -1.046875 -8.328125 Z M -0.125 -4.875 "/></g></g></g></svg>